<?xml version="1.0" encoding="UTF-8" standalone="no"?>
<svg id="love-hate-icons" width="297px" height="518px" viewBox="0 0 297 518" version="1.1" xmlns="http://www.w3.org/2000/svg" xmlns:xlink="http://www.w3.org/1999/xlink" xmlns:sketch="http://www.bohemiancoding.com/sketch/ns">
    <title>like-hate</title>
    <desc>Created by Cihad Turhan. Use without permission is prohibited.</desc>
    <defs></defs>
        <g id="svg-like-hate" sketch:type="MSArtboardGroup">
            <g id="svg-corgis" sketch:type="MSLayerGroup" transform="translate(220.000000, 237.000000)">
                <path class="st0" d="M42-3 M28.2,19.5c0.7-0.1,0.8-0.3,0.4-0.9c-0.2-0.3-0.1-0.3,0.1-0.4c0.2-0.1,0.4-0.2,0.6-0.2
	c2.1-0.6,3.5-2,4.4-3.8c0.7-1.3,0.3-2.2-1.2-2.5c-0.2,0-0.3-0.1-0.5-0.1c-1-0.1-2-0.2-3-0.3c-0.4,0-0.6-0.1-0.8-0.5
	c-0.2-0.4-0.5-0.8-0.8-1.1c-1.1-1.1-2.5-1.8-4-2.2c-0.2,0-0.5,0-0.5-0.4c-0.3-1.9-1.3-3.4-2.5-4.9c-0.3-0.4-0.7-0.8-1.2-1
	c-0.6-0.3-1.2-0.1-1.4,0.5c-0.1,0.2-0.2,0.5-0.2,0.8c-0.2,1.1-0.2,2.3-0.2,3.5c0,0.1,0.1,0.3-0.1,0.3c-0.9-0.8-1.7-1.7-2.7-2.4
	c-0.5-0.3-0.9-0.7-1.5-0.8C12.6,3,12,3.2,11.7,3.8c-0.2,0.3-0.3,0.7-0.4,1c-0.2,1-0.2,2-0.1,3c0.2,2.1,0.7,4.2,2,6
	c0.3,0.4,0.4,0.5-0.2,0.7c-0.2,0.1-0.5,0.2-0.5,0.5c0,0.3,0.3,0.3,0.6,0.4c-1,1.1-1.1,1.3-0.2,1.7c-0.2,0.1-0.4,0.2-0.6,0.3
	c-1.7,0.8-3.5,1.4-5,2.5c-2.1,1.6-3.8,3.5-4.1,6.3c-0.1,1.2-0.3,2.3-0.6,3.4c-0.1,0.3-0.1,0.7-0.1,1c0,0.8,0.2,1,0.9,0.9
	c0.1,0.6-0.1,1.1,0.1,1.7c0.1,0.3,0.2,0.6,0.4,0.6c0.5,0,0.4,0.3,0.5,0.6c0.3,2.1,0.7,4.1,1.7,5.9c1.3,2.5,3.3,3.4,6,2.9
	c1.7-0.3,2.3-1.2,2-2.9c-0.1-0.4-0.4-0.9,0.5-1c0.4,0,0.9,0.1,1.2-0.4c0,0,0.1,0,0.1,0.1c0.2,0.3,0.5,0.2,0.8,0.3
	c-0.2,0.5-0.3,1-0.4,1.5c-0.3,1.4,0.2,2.2,1.6,2.5c1.3,0.3,2.5,0.1,3.7-0.2c1.8-0.5,3.1-1.6,3.4-3.6c0-0.1,0-0.3,0.2-0.3
	c0.5,0,0.5-0.3,0.6-0.7c0.1-0.3-0.1-0.6,0.1-0.9c0.4-0.6,0.4-1.3,0.3-2c0-0.6,0.1-1.1,0.3-1.6c0.1-0.3,0.2-0.5,0.3-0.8
	c0.6-2.6,0.6-5.3,0.3-8c0-0.3-0.2-0.6,0-0.9c0.3-0.4,0.3-0.8,0.2-1.2c0-0.1-0.1-0.3,0-0.4c0.6-0.4,0.3-0.9,0.3-1.4
	c0-0.2,0-0.3,0.2-0.4c0.5-0.1,0.5-0.4,0.4-0.8C28.5,20.2,28.4,19.9,28.2,19.5z" fill="#F7F7F7"/>
<path class="st1" d="M28.2,19.5c0.2,0.3,0.3,0.6,0.4,1c0.1,0.4,0.1,0.7-0.4,0.8c-0.3,0-0.2,0.2-0.2,0.4c0,0.5,0.3,1-0.3,1.4
	c0,0,0,0.2,0,0.4c0.1,0.4,0.1,0.8-0.2,1.2c-0.2,0.3-0.1,0.6,0,0.9c0.3,2.7,0.2,5.3-0.3,8c-0.1,0.3-0.2,0.5-0.3,0.8
	c-0.2,0.5-0.4,1-0.3,1.6c0,0.7,0,1.3-0.3,2c-0.2,0.3,0,0.6-0.1,0.9c-0.1,0.3-0.1,0.7-0.6,0.7c-0.2,0-0.2,0.1-0.2,0.3
	c-0.4,1.9-1.6,3.1-3.4,3.6c-1.2,0.3-2.5,0.5-3.7,0.2c-1.4-0.3-1.9-1.1-1.6-2.5c0.1-0.5,0.2-1,0.4-1.5c-0.3-0.1-0.6,0-0.8-0.3
	c0,0-0.1-0.1-0.1-0.1c-0.3,0.5-0.8,0.3-1.2,0.4c-0.9,0.1-0.6,0.6-0.5,1c0.3,1.7-0.3,2.6-2,2.9c-2.7,0.5-4.7-0.5-6-2.9
	c-1-1.9-1.5-3.9-1.7-5.9c0-0.3,0-0.6-0.5-0.6c-0.3,0-0.4-0.3-0.4-0.6c-0.2-0.5,0-1.1-0.1-1.7c-0.8,0.1-1-0.1-0.9-0.9
	c0-0.3,0-0.7,0.1-1c0.3-1.1,0.4-2.3,0.6-3.4c0.3-2.8,2-4.7,4.1-6.3c1.5-1.1,3.3-1.7,5-2.5c0.2-0.1,0.4-0.2,0.6-0.3
	c-0.9-0.4-0.9-0.6,0.2-1.7c-0.2-0.1-0.6,0-0.6-0.4c0-0.3,0.3-0.5,0.5-0.5c0.5-0.2,0.4-0.3,0.2-0.7c-1.3-1.8-1.8-3.8-2-6
	c-0.1-1-0.1-2,0.1-3c0.1-0.4,0.2-0.7,0.4-1C12,3.2,12.6,3,13.2,3.1c0.6,0.1,1.1,0.4,1.5,0.8c1,0.7,1.8,1.6,2.7,2.4
	c0.2-0.1,0.1-0.2,0.1-0.3c0-1.2,0-2.3,0.2-3.5c0-0.3,0.1-0.5,0.2-0.8c0.3-0.6,0.8-0.8,1.4-0.5c0.5,0.2,0.8,0.6,1.2,1
	c1.2,1.5,2.1,3,2.5,4.9c0.1,0.4,0.3,0.3,0.5,0.4c1.5,0.4,2.9,1.1,4,2.2c0.3,0.3,0.7,0.7,0.8,1.1c0.2,0.4,0.4,0.5,0.8,0.5
	c1,0.1,2,0.2,3,0.3c0.2,0,0.3,0,0.5,0.1c1.5,0.4,1.9,1.2,1.2,2.5c-1,1.8-2.3,3.3-4.4,3.8c-0.2,0.1-0.4,0.1-0.6,0.2
	c-0.2,0.1-0.3,0.2-0.1,0.4C29.1,19.2,29,19.4,28.2,19.5z M15.7,5.8c-0.1-0.1-0.2-0.3-0.4-0.4c-0.4-0.5-0.9-1.1-1.5-1.4
	c-1-0.5-1.5-0.3-1.8,0.8c-0.1,0.3-0.1,0.5-0.1,0.8c-0.2,2.6,0.2,5,1.3,7.3c0.2,0.4,0.4,0.8,0.8,1.2c0.2-0.9,0.5-1.7,0.8-2.6
	c0.3-0.4,0.5-0.7,0.8-1.1c0.1-0.1,0.1-0.2-0.1-0.3c-0.5-0.3-0.5-0.8,0-1.1c0.2-0.1,0.5-0.2,0.8-0.3c-0.1-0.3-0.5-0.5-0.2-0.8
	c0.2-0.3,0.5-0.2,0.8-0.2c0.2,0,0.3,0.2,0.5,0C16.7,7.1,16.2,6.4,15.7,5.8z M18.5,8.1c-0.5-0.5-0.9-1-1.5-1.4
	c0.1,0.2,0.2,0.3,0.3,0.5c0.2,0.3,0.5,0.7,0.7,1c0.1,0.1,0.2,0.3,0.1,0.5c-0.1,0.2-0.3,0-0.4-0.1c-0.4-0.2-0.7-0.4-1.2-0.3
	c0.2,0.3,0.6,0.4,0.7,0.7c-0.2,0.1-0.5,0.2-0.7,0.2c-0.2,0-0.4,0.1-0.7,0.1c-0.2,0-0.3,0.1-0.3,0.3c0,0.2,0.2,0.1,0.4,0.2
	c0.2,0,0.4,0,0.7,0.1c-1,1-1.6,2.1-2,3.4c-0.1,0.5-0.3,0.9,0.4,1c-0.5,0.4-1.3,0.2-1.7,0.7c0.5,0.4,0.9-0.3,1.5-0.1
	c-0.1,0.3-0.3,0.3-0.5,0.4c-0.4,0.3-0.9,0.6-1.2,1c-0.1,0.1-0.2,0.2-0.1,0.3c0,0.1,0.2,0.1,0.3,0.1c0.4,0,0.9,0,1.3,0
	c-0.8,0.6-1.5,1.2-2.4,1.6c-0.8,0.3-1.5,0.7-2.3,1c-2.9,1.5-5.1,3.5-5.9,6.8c-0.1,0.3,0,0.3,0.2,0.3l0,0c0,0.4-0.2,0.8-0.3,1.2
	c-0.3,0.9-0.5,1.9-0.6,2.9C3.1,30.7,3,31,3.4,31c0.3,0,0.2-0.3,0.3-0.5c0.1-0.2,0-0.5,0.3-0.7c0.3,1.1-0.2,2.3,0.3,3.5
	c0.2-0.4,0.1-0.8,0.4-1.1c0.3,2.2,0.6,4.3,1.4,6.3c0.2,0.7,0.6,1.4,1,2c1.2,1.9,3.5,2.6,5.7,1.9c0.8-0.3,1.1-0.8,1-1.6
	c-0.1-0.6-0.2-1.1-0.3-1.7c0.2-0.5-0.5-0.9-0.2-1.5c0.2,0.3,0.3,0.5,0.4,0.7c0.6,0.8,0.8,0.8,1.3-0.1c0,0,0.1,0,0.1-0.1
	c0.3,0.1,0.1,0.5,0.3,0.6c0.4-0.2,0.4-0.7,0.9-0.9c0,0.2,0,0.3,0,0.4c0,0.2-0.1,0.3,0.1,0.4c0.2,0.1,0.4,0,0.5-0.1
	c0.3-0.2,0.6-0.5,0.8-0.8c0.4-0.5,0.7-1.1,1.1-1.7c0.1,0.7-0.1,1.3-0.5,1.9c-0.2,0.3-0.5,0.5-0.5,0.8c-0.3,0.6-0.5,1.3-0.7,1.9
	c-0.3,1.1,0.1,1.7,1.3,1.9c0.2,0,0.3,0.1,0.5,0.1c1.1,0,2.2-0.1,3.2-0.5c1.2-0.4,2-1.2,2.5-2.3c0.1-0.3,0.2-0.5,0.3-0.8
	c0.2-0.3,0.2-0.6,0-0.9c0-0.3-0.2-0.5-0.1-0.8c0.3,0.3,0.4,0.7,0.8,1.1c0-0.4,0-0.7,0-1c0-0.2,0-0.4-0.1-0.7c-0.1-0.1-0.1-0.4,0-0.4
	c0.6,0,0.3-0.4,0.4-0.6c0-0.4,0-0.9,0-1.3c0-0.1,0-0.3,0.1-0.3c0.5,0.2,0.3-0.2,0.3-0.3c0.2-3.4-0.5-6.6-2.1-9.6
	c-0.1-0.2-0.4-0.6-0.2-0.7c0.2-0.1,0.4,0.3,0.6,0.5c1,1.6,1.7,3.4,2.1,5.3c0,0.1,0,0.3,0.2,0.4c0.1-2.4,0.1-4.7-0.4-7
	c0-0.2-0.1-0.3,0-0.5c0.3,0.1,0.2,0.5,0.4,0.6c0.1-0.7-0.4-1.3-0.3-2c0.4,0.2,0.4,0.8,0.8,1c0.1-0.9-0.5-1.6-0.5-2.5
	c0.2,0.2,0.4,0.5,0.6,0.8c0.1,0.1,0.1,0.3,0.3,0.2c0.2-0.1,0.1-0.2,0-0.3c-0.1-0.4-0.3-0.7-0.5-1c-0.2-0.2-0.4-0.4-0.4-0.8
	c0.4,0,0.6,0.3,1,0.2c-0.3-0.4-0.6-0.6-1-0.9c-0.1-0.1-0.4-0.2-0.2-0.4c0.1-0.2,0.3-0.1,0.5,0.1c0.5,0.4,0.9,0.3,1.4,0.1
	c0.2-0.1,0.5-0.2,0.7-0.3c1.8-0.5,2.9-1.8,3.8-3.3c0.2-0.3,0.1-0.3-0.2-0.4c-0.7-0.1-1.1-0.5-1-1.1c0-0.4-0.2-0.5-0.5-0.5
	c-0.9-0.1-1.8-0.2-2.7-0.2c-0.4,0-0.6-0.2-0.8-0.5c-0.6-1.2-1.6-1.9-2.7-2.5C23.2,7.6,20.9,7.6,18.5,8.1z M18.1,5.6
	c0,0.4,0,0.7,0,1.1c0,0.4,0.6,1.1,0.8,1c1.1-0.3,2.2-0.3,3.4-0.3c0.3,0,0.3-0.1,0.2-0.4c-0.1-0.4-0.2-0.8-0.4-1.2
	c-0.6-1.4-1.4-2.6-2.5-3.7c-0.2-0.2-0.5-0.5-0.9-0.4c-0.4,0.1-0.4,0.5-0.5,0.9C18.2,3.5,18.1,4.5,18.1,5.6z" fill="#cc6600"/>
<path class="st2" d="M6.2,38.6c-0.8-2-1.1-4.1-1.4-6.3c-0.3,0.3-0.2,0.6-0.4,1.1C3.9,32.2,4.3,31,4,29.9c-0.3,0.2-0.3,0.4-0.3,0.7
	c-0.1,0.2,0,0.5-0.3,0.5c-0.4,0-0.3-0.4-0.2-0.6c0-1,0.3-1.9,0.6-2.9C3.8,27.2,4,26.8,4,26.3c0,0,0,0,0.1-0.1c0,0,0,0,0,0
	c0,0,0,0.1,0,0.1c-0.2,0-0.3,0-0.2-0.3c0.8-3.3,3-5.3,5.9-6.8c0.7-0.4,1.5-0.7,2.3-1c0.9-0.4,1.7-1,2.4-1.6c0.7-0.1,1.4-0.1,2.1-0.1
	c2,0.1,3.7,0.8,5.5,1.6c1.3,0.5,2.5,1.2,3.2,2.4c0.3,0.5,0.6,1.1,1,1.7c0.1,0.2,0.2,0.4,0.4,0.4c-0.2,0.1-0.1,0.3,0,0.5
	c0.5,2.3,0.5,4.7,0.4,7c-0.3-0.1-0.2-0.3-0.2-0.4c-0.4-1.9-1-3.7-2.1-5.3c-0.1-0.2-0.3-0.6-0.6-0.5c-0.3,0.2,0,0.5,0.2,0.7
	c1.6,3,2.3,6.2,2.1,9.6c0,0.1,0.2,0.5-0.3,0.3c-0.1,0-0.1,0.2-0.1,0.3c0,0.4,0,0.9,0,1.3c0,0.2,0.2,0.6-0.4,0.6
	c-0.1,0-0.1,0.3,0,0.4c0.1,0.2,0.1,0.4,0.1,0.7c0,0.3,0,0.6,0,1c-0.5-0.4-0.5-0.8-0.8-1.1c-0.1,0.3,0.1,0.5,0.1,0.8
	c-0.6,0.6-1.4,0.9-2.3,0.9c-1.6,0-3.2-0.2-4.8-0.3c0-0.4,0.3-0.6,0.5-0.8c0.4-0.5,0.6-1.1,0.5-1.9c-0.4,0.6-0.7,1.1-1.1,1.7
	c-0.2,0.3-0.5,0.6-0.8,0.8c-0.2,0.1-0.3,0.2-0.5,0.1c-0.2-0.1-0.1-0.3-0.1-0.4c0-0.1,0-0.2,0-0.4c-0.4,0.2-0.5,0.7-0.9,0.9
	c-0.2-0.2,0-0.5-0.3-0.6c0,0-0.1,0-0.1,0.1c-0.5,0.9-0.7,0.9-1.3,0.1c-0.1-0.2-0.3-0.4-0.4-0.7c-0.3,0.6,0.4,1,0.2,1.5
	c-0.2-0.2-0.5-0.2-0.8-0.1c-1.3,0.4-2.6,0.3-4,0.2C7.9,39.1,7.1,38.8,6.2,38.6z M11.5,24.6c-2.3-0.4-4.5,1-4.8,2.9
	c0,0.2-0.1,0.3-0.2,0.4C6,28.7,5.9,29.6,6,30.7c0.3-0.4,0.3-0.9,0.6-1.1c-0.3,1.1-0.3,2.2,0.4,3.3c0-0.2,0-0.3,0.1-0.6
	c0.2,0.5,0.3,0.9,0.4,1.3c0,0,0.1,0,0.1,0c0.1-0.4,0.1-0.9,0.2-1.3c0.5,1.2,1.2,2.1,2.2,3.1c-0.1-0.6-0.5-1.1-0.4-1.7
	c0.7,1.2,1.3,2.4,2.3,3.3c-0.2-0.4-0.3-0.9-0.5-1.3c0.7,0.7,1.4,1.3,2.2,2.1c0-0.4-0.1-0.7-0.1-1.1c0.3,0.5,0.6,0.9,0.8,1.2
	c0.1,0.1,0.1,0.3,0.3,0.3c0.1,0,0.1-0.2,0.2-0.3c0.1-0.3,0.3-0.7,0.5-1c0,0,0.1,0,0.1,0c0,0.4,0,0.8,0,1.3c0,0,0.1,0,0.1,0
	c0.3-0.5,0.6-1,0.9-1.6c0,0.2,0,0.4,0,0.5c0,0.2-0.2,0.6,0,0.7c0.3,0.2,0.4-0.2,0.6-0.3c1.3-0.9,2.3-2.2,3.5-3.2c0,0.2,0,0.4,0,0.5
	c0,0,0,0-0.1,0.1c0,0,0,0,0,0c0,0,0-0.1,0-0.1c0.3-0.3,0.3-0.7,0.5-1c0.2-0.6,0.4-1.2,0.6-1.8c0,0,0.1,0,0.1,0
	c0.1,0.6,0.1,1.1,0.2,1.7c0,0,0.1,0,0.1,0c0.2-0.7,0.3-1.3,0.5-2.1c0.2,0.6,0.3,1,0.4,1.5c0.3-1.1,0.3-2.2,0.3-3.3
	c0-0.1-0.1-0.3,0-0.4c0.4-0.3,0.2-0.7,0.1-1c-0.2-0.9-0.7-1.6-1.3-2.2c-1.2-1.2-2.6-1.4-4.2-0.8c-0.1-0.3,0-0.7-0.3-1
	c-0.3,0.9-0.6,1.7-1.1,2.5c-0.1,0.1-0.1,0.2-0.2,0.2c-0.4,0-0.4,0-0.6,0.3c-0.3,0.7-0.9,0.8-1.4,1.2c-0.1,0.1-0.3,0.1-0.4,0
	c-0.3-0.1-0.5-0.3-0.7-0.6c-0.3-0.4-0.5-0.8-0.8-1.3c0,0.3-0.1,0.4-0.1,0.6c-0.8-1.1-0.2-2.2,0-3.3C11.9,23.8,11.9,23.8,11.5,24.6z
	 M10.1,35.3L10.1,35.3L10.1,35.3L10.1,35.3z" fill="#E88207"/>
<path class="st0" d="M26.6,22.6c-0.2-0.1-0.3-0.2-0.4-0.4c-0.3-0.6-0.6-1.2-1-1.7c-0.8-1.2-2-1.8-3.2-2.4c-1.8-0.8-3.5-1.5-5.5-1.6
	c-0.7,0-1.4,0-2.1,0.1c-0.4,0-0.9,0-1.3,0c-0.1,0-0.2,0-0.3-0.1c0-0.1,0.1-0.2,0.1-0.3c0.4-0.4,0.8-0.7,1.2-1
	c0.2-0.1,0.4-0.2,0.5-0.4c-0.5-0.2-1,0.5-1.5,0.1c0.5-0.5,1.2-0.3,1.7-0.7c0.5,0,0.9,0.5,1.4-0.1c0,0,0.1,0,0.2,0.1
	c0.2,0.1,0.4,0.1,0.6,0.2c0.3,0.1,0.5,0.1,0.6-0.4c0.3,0.5,0.5,0.5,0.8,0.2c0.1-0.1,0.3-0.3,0.5-0.2c0.1,0.2-0.1,0.4,0,0.6
	c0.4-0.2,0.8-0.4,1.3-0.3c0.1,0.2-0.3,0.3-0.2,0.5c0.4-0.1,0.7,0,1,0.2c0.1,0,0.2,0.1,0.1,0.2c-0.4,0.3,0,0.3,0.1,0.3
	c0.2,0.1,0.4,0.3,0.6,0.5c0.3,0.2,0.1,0.3-0.2,0.4c0.6,0.3,1.2,0.7,1.9,1c0.7,0.3,1.4,0.2,2.1,0.2c0.3,0,0.4-0.2,0.1-0.4
	c-1.2-1.4-1.2-2.4,0.1-3.8c0.4-0.4,0.8-0.9,1.1-1.4c0.2-0.4,0.2-0.7-0.1-1c-0.5-0.6-1.1-1.1-1.8-1.6c-1.7-1.1-3.6-1.4-5.5-1.3
	c-0.4,0-0.9,0.1-1.3-0.1c2.4-0.5,4.7-0.5,6.9,0.7c1.1,0.6,2.1,1.3,2.7,2.5c0.2,0.3,0.4,0.5,0.8,0.5c0.9,0.1,1.8,0.2,2.7,0.2
	c0.3,0,0.5,0.1,0.5,0.5c0,0.6,0.4,1,1,1.1c0.3,0.1,0.4,0.1,0.2,0.4c-0.9,1.6-2,2.8-3.8,3.3c-0.2,0.1-0.5,0.1-0.7,0.3
	c-0.5,0.2-0.9,0.4-1.4-0.1c-0.1-0.1-0.3-0.2-0.5-0.1c-0.1,0.2,0.1,0.3,0.2,0.4c0.3,0.3,0.7,0.5,1,0.9c-0.4,0.1-0.7-0.2-1-0.2
	c0,0.3,0.3,0.5,0.4,0.8c0.2,0.3,0.4,0.6,0.5,1c0,0.1,0.2,0.3,0,0.3c-0.2,0.1-0.2-0.1-0.3-0.2c-0.2-0.3-0.3-0.5-0.6-0.8
	c0,0.9,0.5,1.6,0.5,2.5c-0.4-0.2-0.3-0.7-0.8-1c-0.1,0.7,0.4,1.3,0.3,2C26.9,23.1,26.9,22.7,26.6,22.6z" fill="#F7F7F7"/>
<path class="st2" d="M18.5,8.1c0.4,0.2,0.8,0.1,1.3,0.1c2-0.1,3.8,0.2,5.5,1.3c0.7,0.4,1.3,0.9,1.8,1.6c0.3,0.3,0.3,0.6,0.1,1
	c-0.3,0.5-0.7,1-1.1,1.4c-1.3,1.3-1.3,2.4-0.1,3.8c0.3,0.3,0.1,0.4-0.1,0.4c-0.7,0-1.5,0.1-2.1-0.2c-0.6-0.3-1.2-0.6-1.9-1
	c0.3,0,0.4-0.1,0.2-0.4c-0.2-0.2-0.4-0.4-0.6-0.5c-0.1-0.1-0.5-0.1-0.1-0.3c0.1-0.1-0.1-0.1-0.1-0.2c-0.3-0.2-0.7-0.3-1-0.2
	c-0.1-0.3,0.2-0.3,0.2-0.5c-0.5-0.1-0.9,0.1-1.3,0.3c-0.2-0.2,0.1-0.4,0-0.6c-0.2,0-0.4,0.1-0.5,0.2c-0.3,0.3-0.6,0.3-0.8-0.2
	c0,0.5-0.3,0.5-0.6,0.4c-0.2-0.1-0.4-0.2-0.6-0.2c-0.1,0-0.2-0.1-0.2-0.1c-0.4,0.6-0.9,0.1-1.4,0.1c-0.7-0.1-0.6-0.6-0.4-1
	c0.4-1.3,1-2.4,2-3.4c-0.3,0-0.5,0-0.7-0.1c-0.1,0-0.3,0-0.4-0.2c0-0.2,0.2-0.3,0.3-0.3c0.2-0.1,0.4-0.1,0.7-0.1
	c0.2,0,0.5-0.1,0.7-0.2c-0.2-0.3-0.5-0.4-0.7-0.7c0.5-0.1,0.9,0.2,1.2,0.3c0.1,0.1,0.3,0.2,0.4,0.1c0.1-0.1,0-0.3-0.1-0.5
	c-0.2-0.3-0.5-0.7-0.7-1C17.2,7,17.1,6.9,17,6.7C17.6,7.1,18,7.6,18.5,8.1z M24.7,11.1c-0.4,0-0.7,0.3-0.7,0.8
	c0,0.5,0.4,0.8,0.8,0.8c0.4,0,0.8-0.3,0.8-0.8C25.6,11.5,25.2,11.1,24.7,11.1z" fill="#E88207"/>
<path class="st0" d="M17.8,39c1.6,0.1,3.2,0.3,4.8,0.3c0.9,0,1.6-0.3,2.3-0.9c0.2,0.3,0.2,0.6,0,0.9c-0.1,0.2-0.2,0.5-0.3,0.8
	c-0.5,1.2-1.3,1.9-2.5,2.3c-1,0.4-2.1,0.5-3.2,0.5c-0.2,0-0.3,0-0.5-0.1c-1.2-0.2-1.5-0.8-1.3-1.9C17.2,40.2,17.4,39.6,17.8,39z" fill="#F7F7F7"/>
<path class="st0" d="M6.2,38.6c0.9,0.2,1.7,0.5,2.6,0.6c1.3,0.2,2.7,0.2,4-0.2c0.3-0.1,0.5-0.1,0.8,0.1c0.1,0.6,0.2,1.1,0.3,1.7
	c0.1,0.9-0.2,1.3-1,1.6c-2.1,0.8-4.4,0-5.7-1.9C6.8,40,6.4,39.4,6.2,38.6z" fill="#F7F7F7"/>
<path class="st0" d="M14.7,11.4c-0.3,0.8-0.7,1.6-0.8,2.6c-0.4-0.4-0.6-0.8-0.8-1.2C12,10.4,11.5,8,11.8,5.4c0-0.3,0.1-0.5,0.1-0.8
	c0.3-1.1,0.9-1.3,1.8-0.8c0.6,0.3,1.1,0.9,1.5,1.4c0.1,0.1,0.2,0.3,0.4,0.4c-1.5-0.2-2.3,0.4-2.3,1.9c0,1,0.2,2,0.7,2.9
	C14.2,10.9,14.3,11.3,14.7,11.4z" fill="#F7F7F7"/>
<path class="st2" d="M18.1,5.6c0-1,0.1-2,0.2-3c0.1-0.3,0.1-0.8,0.5-0.9c0.4-0.1,0.6,0.2,0.9,0.4c1.1,1,1.9,2.3,2.5,3.7
	c0.2,0.4,0.3,0.8,0.4,1.2c0,0.2,0,0.4-0.2,0.4c-1.1,0-2.3,0-3.4,0.3c-0.2,0.1-0.8-0.6-0.8-1C18.1,6.3,18.1,5.9,18.1,5.6z" fill="#E88207"/>
<path class="st2" d="M14.7,11.4c-0.4-0.2-0.5-0.5-0.6-0.8c-0.5-0.9-0.8-1.9-0.7-2.9c0.1-1.5,0.8-2.2,2.3-1.9c0.5,0.7,1.1,1.3,1.6,2
	c-0.2,0.2-0.4,0-0.5,0c-0.3,0-0.6-0.1-0.8,0.2c-0.2,0.3,0.1,0.5,0.2,0.8c-0.3,0.1-0.5,0.1-0.8,0.3c-0.5,0.3-0.5,0.8,0,1.1
	c0.2,0.1,0.2,0.1,0.1,0.3C15.2,10.7,14.9,11.1,14.7,11.4z" fill="#E88207"/>
<path class="st3" d="M17.9,25c1.6-0.6,3-0.3,4.2,0.8c0.6,0.6,1.1,1.4,1.3,2.2c0.1,0.3,0.3,0.7-0.1,1c-0.1,0,0,0.2,0,0.4
	c0,1.1,0,2.2-0.3,3.3c-0.2-0.5-0.3-1-0.4-1.5c-0.2,0.8-0.3,1.4-0.5,2.1c0,0-0.1,0-0.1,0c-0.1-0.6-0.1-1.1-0.2-1.7c0,0-0.1,0-0.1,0
	c-0.2,0.6-0.4,1.2-0.6,1.8c-0.1,0.4-0.1,0.8-0.5,1l0,0c0-0.1,0-0.3,0-0.5c-1.3,1.1-2.3,2.3-3.5,3.2c-0.2,0.1-0.4,0.5-0.6,0.3
	c-0.2-0.2,0-0.5,0-0.7c0-0.1,0-0.2,0-0.5c-0.3,0.6-0.6,1.1-0.9,1.6c0,0-0.1,0-0.1,0c0-0.4,0-0.8,0-1.3c0,0-0.1,0-0.1,0
	c-0.2,0.3-0.3,0.7-0.5,1c-0.1,0.1-0.1,0.3-0.2,0.3c-0.2,0-0.2-0.2-0.3-0.3c-0.3-0.4-0.5-0.7-0.8-1.2c0,0.4,0.1,0.7,0.1,1.1
	c-0.7-0.8-1.5-1.4-2.2-2.1c0.2,0.4,0.3,0.9,0.5,1.3c-1-0.9-1.6-2.1-2.3-3.3c-0.1,0.7,0.3,1.1,0.4,1.7c-1-0.9-1.8-1.9-2.2-3.1
	c-0.1,0.4-0.1,0.9-0.2,1.3c0,0-0.1,0-0.1,0c-0.1-0.4-0.2-0.8-0.4-1.3c0,0.2-0.1,0.4-0.1,0.6c-0.7-1.1-0.7-2.2-0.4-3.3
	c-0.3,0.3-0.4,0.7-0.6,1.1c-0.1-1.1,0-1.9,0.5-2.7c0.1-0.1,0.2-0.3,0.2-0.4c0.3-1.9,2.5-3.3,4.8-2.9c0,0.1-0.1,0.3-0.1,0.4
	c-0.3,1.2,0,1.9,1.1,2.6c0.1,0.1,0.2,0.2,0.3,0.3c0.9,1.2,1.5,1.4,2.7,0.6C16.6,27.6,17.6,26.5,17.9,25z" fill="#FFE9C2"/>
<path class="st1" d="M17.9,25c-0.3,1.5-1.3,2.5-2.5,3.4c-1.2,0.8-1.8,0.7-2.7-0.6c-0.1-0.1-0.2-0.2-0.3-0.3
	c-1.1-0.7-1.4-1.4-1.1-2.6c0-0.1,0.1-0.3,0.1-0.4c0.4-0.7,0.4-0.8,0.9-1c-0.3,1.1-0.8,2.2,0,3.3c0-0.2,0-0.3,0.1-0.6
	c0.3,0.5,0.6,0.9,0.8,1.3c0.2,0.3,0.4,0.5,0.7,0.6c0.1,0.1,0.3,0.1,0.4,0c0.5-0.4,1.2-0.5,1.4-1.2c0.1-0.3,0.2-0.3,0.6-0.3
	c0.1,0,0.2-0.1,0.2-0.2c0.5-0.7,0.8-1.6,1.1-2.5C17.9,24.3,17.9,24.7,17.9,25z" fill="#cc6600"/>
<path class="st0" d="M20.6,34.5c0,0,0,0.1,0,0.1C20.6,34.6,20.6,34.6,20.6,34.5C20.6,34.6,20.6,34.5,20.6,34.5
	C20.6,34.5,20.6,34.5,20.6,34.5z" fill="#F7F7F7"/>
<polygon class="st0" points="10.1,35.3 10.2,35.3 10.1,35.3 " fill="#F7F7F7"/>
<path class="st1" d="M24.7,11.1c0.5,0,0.9,0.4,0.8,0.9c0,0.4-0.4,0.8-0.8,0.8c-0.4,0-0.8-0.4-0.8-0.8C24,11.4,24.3,11.1,24.7,11.1z" fill="#4A3F32"/>
            </g>
            <g id="svg-design" sketch:type="MSLayerGroup" transform="translate(224.731727, 123.857267)">
                <path id="Fill-473" sketch:type="MSShapeGroup"  d="M28.2,32.8l6.8-6.8L8.9,0L2.2,6.8L28.2,32.8" fill="#be9664"/>
				<path id="Fill-474" sketch:type="MSShapeGroup"  d="M29.7,25.9l-0.4-0.4l2.5-2.5l0.4,0.4L29.7,25.9" />
				<path id="Fill-475" sketch:type="MSShapeGroup"  d="M9.5,5.7L9.1,5.3l2.5-2.5l0.4,0.4L9.5,5.7" />
				<path id="Fill-476" sketch:type="MSShapeGroup"  d="M16.3,12.4L15.9,12l2.5-2.5l0.4,0.4L16.3,12.4" />
				<path id="Fill-477" sketch:type="MSShapeGroup"  d="M23,19.1l-0.4-0.4l2.5-2.5l0.4,0.4L23,19.1"/>
				<path id="Fill-478" sketch:type="MSShapeGroup"  d="M18.8,16.6l-0.4-0.4l3.3-3.3l0.4,0.4L18.8,16.6"/>
				<path id="Fill-479" sketch:type="MSShapeGroup"  d="M12.1,9.9l-0.4-0.4L15,6.1l0.4,0.4L12.1,9.9"/>
				<path id="Fill-480" sketch:type="MSShapeGroup"  d="M25.6,23.3l-0.4-0.4l3.3-3.3l0.4,0.4L25.6,23.3"/>
				<path id="Fill-481" sketch:type="MSShapeGroup"  d="M32.7,2.3c-1.4-1.4-3.6-1.4-5,0l-0.8,0.8l5,5l0.8-0.8l0,0C34.1,5.9,34.1,3.6,32.7,2.3" fill="#e9a980"/>
				<path id="Fill-482" sketch:type="MSShapeGroup"  d="M29.4,10.6l-5-5l2.5-2.5l5,5L29.4,10.6" fill="#bebebe"/>
				<path id="Fill-483" sketch:type="MSShapeGroup"  d="M29.4,10.6l-5-5l-19,19l5,5L29.4,10.6" fill="#f39c12"/>
				<path id="Fill-484" sketch:type="MSShapeGroup"  d="M10.4,29.6l-5-5l-1,4l2,2L10.4,29.6" fill="#dfcbb1"/>
				<path id="Fill-485" sketch:type="MSShapeGroup"  d="M6.4,30.6l-2-2l-0.7,2.7L6.4,30.6"/>
            </g>
            <g id="svg-family" sketch:type="MSLayerGroup" transform="translate(221.731727, 60.000000)">
               <path class="st1" d="M7.1,5.7C7.7,6.5,8.3,7.2,9,7.9c2.2,2,4.7,3.5,7.8,3.7c1.1,0.1,2.2-0.1,3.3-0.4c2.9-0.9,5.1-2.7,6.9-5
		c0.1-0.1,0.2-0.2,0.3-0.4c0.1-0.1,0.2-0.2,0.3-0.3c0,0,0.1,0.3,0.1,0.4c0.1,2.3-0.7,5.6-2.3,8c-0.5,0.7-1,1.3-1.7,1.9
		c-0.2,0.1-0.3,0.4-0.3,0.6c-0.4,4-1.6,7.7-3.9,11c-0.2,0.4-0.5,0.7-0.8,1.1c-0.1,0.1-0.1,0.2-0.2,0.3c-0.2-0.1-0.1-0.2-0.1-0.3
		c0.2-1.4,0.4-2.7,0.5-4.1c0-0.8,0.1-1.5-0.2-2.3c-0.1-0.3-0.2-0.5-0.5-0.5c-0.3,0-0.5,0.2-0.6,0.4c-0.3,0.5-0.3,1.2-0.4,1.8
		c-0.1,1.5,0,3,0.2,4.6c0,0.1,0.1,0.3,0,0.5c-0.5-0.6-0.9-1.3-1.4-2c-0.5-0.8-1-1.7-1.4-2.5c-1.2-2.4-1.9-4.9-2.2-7.5
		c0-0.4-0.2-0.7-0.5-1c-2.7-2-4.3-4.6-4.7-8C7,7.4,7,7,7,6.5C7,6.3,7,6.1,7.1,5.7z" fill="#0099CC"/>
	<path class="st2" d="M27.2,14.7c-0.3,1.2-0.4,2.4-0.2,3.6c0.2,1.9,0.9,3.5,2.4,4.7c0.9,0.8,2,1.3,3.2,1.6c0.8,0.2,2.2,0.4,3.1,0.2
		c0.1,0,0.2,0,0.4,0c-0.3,0.4-0.6,0.6-1,0.8c-1.2,0.8-2.5,1.4-4,1.6c-0.6,0.1-1.2,0.1-1.9,0c-0.3-0.1-0.5,0-0.7,0.1
		c-2.1,1.4-4.4,2.3-7,2.6c-0.3,0-0.7,0.1-1.1,0c0.2-0.3,0.6-0.4,0.9-0.6c0.8-0.5,1.6-1,2.2-1.7c0.2-0.2,0.5-0.5,0.2-0.8
		c-0.3-0.3-0.6-0.1-0.9,0c-1.1,0.6-2,1.5-2.8,2.4c0,0-0.1,0.1-0.2,0.2c-0.1-0.2,0-0.3,0-0.4c0.5-1.7,1.1-3.3,2-4.8
		c0.5-0.9,1.3-1.7,2-2.5c0.2-0.2,0.2-0.3,0.2-0.6c-0.2-1.6,0.2-3,1-4.4c0.3-0.6,0.8-1.2,1.3-1.6C26.7,15,26.9,14.8,27.2,14.7z" fill="#F38C29"/>
	<path class="st1" d="M19,10.7c-3.3,1-6.8-1.1-7-4.7c-0.1-1.3,0.4-2.5,1.4-3.4c2.5-2.4,6.5-2,8.3,0.8C23.5,6.1,22.2,9.7,19,10.7z" fill="#0099CC"/>
	<path class="st3" d="M1.1,20c0-1.8,1.4-3.5,3.3-3.5c1.8,0,3.2,1.5,3.2,3.4c0,1.9-1.6,3.5-3.3,3.5C2.6,23.3,1,21.8,1.1,20z" fill="#CC6699"/>
	<path class="st2" d="M34.8,20.5c0,0.8-0.6,1.9-1.9,2.5c-1.2,0.6-2.3,0.4-3.3-0.4c-1.7-1.3-1.7-3.6-0.6-4.9c1-1.3,2.9-1.6,4.2-0.6
		C34.3,17.8,34.8,18.7,34.8,20.5z" fill="#F38C29"/>
	<path class="st4" d="M7.7,28.8" fill="#1786BE"/>
	<path class="st3" d="M8.7,14.9C9,16.1,9.1,17.3,9,18.5c-0.2,1.9-0.9,3.5-2.4,4.7c-0.9,0.8-2,1.3-3.2,1.6C2.6,25,1.2,25.2,0.4,25
		c-0.1,0-0.2,0-0.4,0c0.3,0.4,0.6,0.6,1,0.8c1.2,0.8,2.5,1.4,4,1.6c0.6,0.1,1.2,0.1,1.9,0c0.3-0.1,0.5,0,0.7,0.1
		c2.1,1.4,4.4,2.3,7,2.6c0.3,0,0.7,0.1,1.1,0c-0.2-0.4-0.6-0.4-0.9-0.6c-0.8-0.5-1.6-1-2.2-1.7c-0.2-0.2-0.5-0.5-0.2-0.8
		c0.3-0.3,0.6-0.1,0.9,0c1.1,0.6,2,1.5,2.8,2.4c0,0,0.1,0.1,0.2,0.2c0.1-0.2,0-0.3,0-0.4c-0.5-1.7-1.1-3.3-2-4.8
		c-0.5-0.9-1.3-1.7-2-2.5c-0.2-0.2-0.2-0.3-0.2-0.6c0.2-1.6-0.2-3-1-4.4c-0.4-0.6-0.8-1.2-1.4-1.6C9.3,15.2,9.1,15,8.7,14.9z" fill="#CC6699"/>
            </g>
            <g id="svg-misunderstood" sketch:type="MSLayerGroup" transform="translate(36.000000, 387.000000)">
                <path class="st1" d="M3.5,31c0.5-1.4,1.1-2.8,1.1-4.3c0.1-2.7-0.4-5.3-1.9-7.6c-0.3-0.5-0.6-1.1-1-1.6c-1.6-2.3-2.2-4.8-1.5-7.5
		c0.3-1.1,0.5-2.3,0.8-3.4c1-3.1,3-5.5,6.1-6.6c2.9-1,6.1-1.4,9.2-0.8c4.4,1,7.3,3.8,9,7.9c0.2,0.4,0.3,0.8,0.4,1.1
		c0.5,1.1,0.6,2.1,0.1,3.2c-0.3,0.7-0.1,1.3,0.3,1.9c0.6,0.8,1.2,1.6,1.7,2.4c0.1,0.2,0.3,0.4,0.4,0.6c0.5,0.9,0.3,1.4-0.6,1.9
		c-0.2,0.1-0.3,0.2-0.5,0.2c-0.5,0.1-0.7,0.4-0.6,0.9c0.2,0.6-0.2,1.1-0.2,1.6c-0.1,1-0.8,1.9-0.5,3.1c0.4,1.6-0.6,2.8-2.3,3
		c-0.7,0.1-1.5,0.1-2.3,0.1c-0.4,0-0.9,0.1-1.3,0.2c-0.7,0.2-1,0.6-1.1,1.2c-0.1,0.7-0.2,1.5-0.3,2.2C13.7,31,8.6,31,3.5,31z" fill="#A0A0A0"/>
	<path class="st2" d="M21.8,11.6c0,5-4.1,9.1-9.1,9.1c-5.1,0-9.1-4.1-9.1-9.3c0-4.9,4.2-9,9.2-9C17.8,2.4,21.8,6.5,21.8,11.6z" fill="#CB98FE"/>
	<path class="st3" d="M9.3,13.9c0.1,0.1,0.4,0.4,0.4,0.5c0.1,0.2,0,0.3-0.2,0.5c-0.7,0.6-1.5,1.2-2.2,1.9c-0.3,0.2-0.6,0.2-0.8-0.1
		c-0.1-0.2,0-0.4,0.2-0.6c0.7-0.7,1.5-1.3,2.3-2C9,13.9,9.2,13.7,9.3,13.9z" fill="#012354"/>
	<path class="st4" d="M12.2,5.9c0.4,0.3,0.4,0.3,0.9-0.1c0,0.7-0.4,1-1,0.8c-0.2-0.1-0.4-0.1-0.6,0C10.8,7,10.1,7.4,9.4,7.8
		C9.3,7.9,9.2,8,9.1,8.2C8.9,8.9,8.6,9,7.8,8.7C8.3,8.7,8.6,8.4,8.4,8c0-0.2,0.2-0.3,0.4-0.4c0.9-0.5,1.8-1,2.7-1.6
		C11.7,5.8,11.9,5.7,12.2,5.9z" fill="#FDF286"/>
	<path class="st4" d="M12.2,5.9C10.8,6.4,9.7,7.3,8.4,8C8.1,7.5,7.8,7.8,7.5,8c0.1-0.7,0.4-0.9,1-0.8c0,0,0.1,0,0.1,0.1
		c0.4,0.1,2.7-1.3,2.8-1.7c0.1-0.7,0.6-0.7,1.4-0.6C12.3,5.2,11.9,5.4,12.2,5.9z" fill="#FDF286"/>
	<path class="st4" d="M19.9,8.4c0.2,0,0.4,0.2,0.4,0.4c0,0.7,0,1.5,0,2.2c0,0.5-0.2,0.6-0.7,0.6c-1-0.1-1.9-0.1-2.9,0
		c-0.5,0.1-0.8-0.1-0.8-0.6c0-0.7,0-1.5,0-2.2c0-0.2,0.2-0.4,0.4-0.4C17.5,8.3,18.7,8.3,19.9,8.4z" fill="#FDF286"/>
	<path class="st3" d="M18.5,9.5c-0.2,0.4-0.3,0.7-0.5,1.1c-0.2,0.3-0.3,0.2-0.3-0.1c0.2-0.4,0.3-0.7,0.5-1.1
		C18.4,9.1,18.5,9.1,18.5,9.5z" fill="#012354"/>
	<path class="st3" d="M17.7,9.5c-0.3,0.1-0.5,0.3-0.5,0.4c0,0.1,0.3,0.2,0.4,0.3c-0.2,0.1-0.8-0.3-0.8-0.3
		C16.9,9.8,17.3,9.5,17.7,9.5z" fill="#012354"/>
	<path class="st3" d="M18.7,9.5c0.3,0.1,0.5,0.3,0.5,0.4c0,0.1-0.3,0.2-0.4,0.3c0.2,0.1,0.8-0.3,0.8-0.3C19.4,9.8,19.1,9.5,18.7,9.5
		z" fill="#012354"/>
	<circle class="st4" cx="12.1" cy="12.1" r="3.4" fill="#FDF286"/>
	<ellipse class="st2" cx="12.1" cy="12.1" rx="2.4" ry="2.4" fill="#CB98FE"/>
            </g>
            <g id="svg-love" sketch:type="MSLayerGroup" transform="translate(240.000000, 11.000000)" fill="#f09ea8">
                <path d="M17.3,5.6c-7.9-8-19.6,4.4,0,15C36.9,10,25.1-2.5,17.3,5.6z"/>
            </g>
            <g id="svg-game" sketch:type="MSLayerGroup" transform="translate(228.000000, 293.000000)" fill="#666666">
                <path class="st1" d="M29.2,24c-0.9-0.9-2.4-2.5-3.2-3c-1-0.6-1.5-0.9-3.9-1.3c0,0-1.4-0.3-4.2-0.3c-2.8,0-4.2,0.3-4.2,0.3
						c-2.4,0.5-2.9,0.7-3.9,1.3c-0.8,0.5-2.3,2.1-3.2,3c-1.4,1.6-2.5,2.4-3.1,2.9c0.9-0.2,2-0.8,3.1-2c0.9-0.9,2.7-2.5,3.6-3
						c1-0.6,1.2-0.8,3.5-1.3c0,0,1.4-0.3,4.2-0.3c2.8,0,4.2,0.3,4.2,0.3c2.4,0.5,2.5,0.7,3.5,1.3c0.8,0.5,2.7,2.1,3.6,3
						c1.2,1.3,2.3,1.8,3.2,2C31.7,26.4,30.7,25.5,29.2,24z" fill="#676767"/>
					<path class="st2" d="M32.1,3.3c-0.6-1.3-2.9-2.8-6.7-1.7c-0.3,0.1-1.9,0.9-2.9,1.3C21.7,3.1,18.5,3,18,3l0,0h0h0l0,0
						c-0.4,0-3.5,0.1-4.4-0.1c-1.1-0.2-2.6-1.1-2.9-1.3C7.7,0.5,4.4,2,3.8,3.3c-0.1,0.2-1.5,3-2.5,6.4c-0.9,3.4-2.6,9-2.5,12.1
						c0,1.8,0.5,2.9,0.5,2.9s0.5,1.8,1.3,2.5c0.4,0.3,0.7,0.5,1.1,0.5s0.9-0.1,1-0.2c0.1,0,0.3-0.1,0.9-0.5c0.7-0.5,1.7-1.3,3.1-2.9
						c0.9-0.9,2.4-2.5,3.2-3c1-0.6,1.5-0.9,3.9-1.3c0,0,1.4-0.3,4.2-0.3c2.8,0,4.2,0.3,4.2,0.3c2.4,0.5,2.9,0.7,3.9,1.3
						c0.8,0.5,2.3,2.1,3.2,3c1.5,1.6,2.5,2.4,3.2,2.9c0.5,0.4,0.8,0.5,0.9,0.5c0.1,0,0.6,0.2,0.9,0.2c0.4,0,0.7-0.1,1.1-0.5
						c0.8-0.7,1.3-2.5,1.3-2.5s0.4-1.1,0.4-2.9c0.1-3.1-1.4-8.7-2.4-12.1C33.7,6.3,32.2,3.5,32.1,3.3z M30.7,9.9
						c0.8,0,1.5,0.7,1.5,1.5c0,0.8-0.7,1.5-1.5,1.5c-0.8,0-1.5-0.7-1.5-1.5C29.2,10.5,29.8,9.9,30.7,9.9z M26.1,14.4
						c0-0.8,0.7-1.5,1.5-1.5c0.8,0,1.5,0.7,1.5,1.5c0,0.8-0.7,1.5-1.5,1.5S26.1,15.2,26.1,14.4z M27.7,6.8c0.8,0,1.5,0.7,1.5,1.5
						c0,0.8-0.7,1.5-1.5,1.5c-0.8,0-1.5-0.7-1.5-1.5C26.1,7.5,26.8,6.8,27.7,6.8z M8.8,15.5c-2.4,0-4.3-1.9-4.3-4.3s1.9-4.3,4.3-4.3
						c2.4,0,4.3,1.9,4.3,4.3S11.2,15.5,8.8,15.5z M15.5,12c-0.4,0-0.7-0.3-0.7-0.6s0.3-0.6,0.7-0.6c0.4,0,0.7,0.3,0.7,0.6
						S15.9,12,15.5,12z M18.1,12.5c-0.6,0-1.1-0.5-1.1-1.1c0-0.6,0.5-1.1,1.1-1.1s1.1,0.5,1.1,1.1S18.7,12.5,18.1,12.5z M20.7,12
						c-0.4,0-0.7-0.3-0.7-0.6s0.3-0.6,0.7-0.6c0.4,0,0.7,0.3,0.7,0.6S21.1,12,20.7,12z M23.1,11.4c0-0.8,0.7-1.5,1.5-1.5
						c0.8,0,1.5,0.7,1.5,1.5c0,0.8-0.7,1.5-1.5,1.5C23.8,12.9,23.1,12.2,23.1,11.4z" fill="#FFCCCC"/>
					<path class="st3" d="M8.8,6.8c-2.4,0-4.3,1.9-4.3,4.3s1.9,4.3,4.3,4.3c2.4,0,4.3-1.9,4.3-4.3S11.2,6.8,8.8,6.8z M8.8,14.6
						c-1.9,0-3.5-1.5-3.5-3.5s1.5-3.5,3.5-3.5s3.5,1.5,3.5,3.5S10.8,14.6,8.8,14.6z" fill="#FFFFFF"/>
					
						<linearGradient id="SVGID_1_" gradientUnits="userSpaceOnUse" x1="368.207" y1="-882.9294" x2="368.207" y2="-874.2744" gradientTransform="matrix(1 0 0 -1 -359.36 -867.445)">
						<stop  offset="0" style="stop-color:#E0E0E0"/>
						<stop  offset="0.759" style="stop-color:#FFFFFF"/>
					</linearGradient>
					<path class="st4" d="M8.8,6.8c-2.4,0-4.3,1.9-4.3,4.3s1.9,4.3,4.3,4.3c2.4,0,4.3-1.9,4.3-4.3S11.2,6.8,8.8,6.8z M8.8,14.6
						c-1.9,0-3.5-1.5-3.5-3.5s1.5-3.5,3.5-3.5s3.5,1.5,3.5,3.5S10.8,14.6,8.8,14.6z" fill="url(#SVGID_1_)"/>
					<path class="st5" d="M12.3,11.2c0-1.9-1.5-3.5-3.5-3.5s-3.5,1.5-3.5,3.5s1.5,3.5,3.5,3.5C10.8,14.6,12.3,13.1,12.3,11.2z" fill="#666666"/>
					<path class="st6" d="M18.1,10.3c-0.6,0-1.1,0.5-1.1,1.1c0,0.6,0.5,1.1,1.1,1.1s1.1-0.5,1.1-1.1S18.7,10.3,18.1,10.3z
						 M18.1,12.2c-0.5,0-0.9-0.4-0.9-0.9c0-0.5,0.4-0.9,0.9-0.9s0.9,0.4,0.9,0.9C19,11.8,18.6,12.2,18.1,12.2z" fill="#A9A9A9"/>
					<path class="st6" d="M15.5,10.7c-0.4,0-0.7,0.3-0.7,0.6s0.3,0.6,0.7,0.6c0.4,0,0.7-0.3,0.7-0.6S15.9,10.7,15.5,10.7z" fill="#A9A9A9"/>
					<path class="st6" d="M20.7,10.7c-0.4,0-0.7,0.3-0.7,0.6s0.3,0.6,0.7,0.6c0.4,0,0.7-0.3,0.7-0.6S21.1,10.7,20.7,10.7z" fill="#A9A9A9"/>
					<path class="st7" d="M24.6,12.9c0.8,0,1.5-0.7,1.5-1.5c0-0.8-0.7-1.5-1.5-1.5c-0.8,0-1.5,0.7-1.5,1.5
						C23.1,12.2,23.8,12.9,24.6,12.9z M23.4,11.4c0-0.7,0.6-1.2,1.2-1.2c0.7,0,1.2,0.6,1.2,1.2s-0.6,1.2-1.2,1.2
						C23.9,12.6,23.4,12,23.4,11.4z" fill="#3082BF"/>
					<path class="st8" d="M27.7,9.9c0.8,0,1.5-0.7,1.5-1.5c0-0.8-0.7-1.5-1.5-1.5c-0.8,0-1.5,0.7-1.5,1.5
						C26.1,9.2,26.8,9.9,27.7,9.9z M27.7,7.1c0.7,0,1.2,0.6,1.2,1.2c0,0.7-0.6,1.2-1.2,1.2S26.4,9,26.4,8.3
						C26.4,7.7,27,7.1,27.7,7.1z" fill="#E05F4D"/>
					<path class="st9" d="M30.7,12.9c0.8,0,1.5-0.7,1.5-1.5c0-0.8-0.7-1.5-1.5-1.5c-0.8,0-1.5,0.7-1.5,1.5
						C29.2,12.2,29.8,12.9,30.7,12.9z M30.7,10.1c0.7,0,1.2,0.6,1.2,1.2s-0.6,1.2-1.2,1.2s-1.2-0.6-1.2-1.2
						C29.5,10.7,30,10.1,30.7,10.1z" fill="#BF422B"/>
					<path class="st10" d="M29.2,14.4c0-0.8-0.7-1.5-1.5-1.5s-1.5,0.7-1.5,1.5c0,0.8,0.7,1.5,1.5,1.5S29.2,15.2,29.2,14.4z
						 M26.4,14.4c0-0.7,0.5-1.2,1.2-1.2c0.7,0,1.2,0.6,1.2,1.2s-0.6,1.2-1.2,1.2C27,15.6,26.4,15.1,26.4,14.4z" fill="#4EAC55"/>
					<path class="st11" d="M24.6,12.6c0.7,0,1.2-0.6,1.2-1.2s-0.6-1.2-1.2-1.2c-0.7,0-1.2,0.6-1.2,1.2C23.4,12,23.9,12.6,24.6,12.6z
						" fill="#3497E1"/>
					<path class="st12" d="M27.7,9.6c0.7,0,1.2-0.6,1.2-1.2c0-0.7-0.6-1.2-1.2-1.2s-1.2,0.6-1.2,1.2C26.4,9,27,9.6,27.7,9.6z" fill="#E27C3F"/>
					<path class="st13" d="M30.7,12.6c0.7,0,1.2-0.6,1.2-1.2s-0.6-1.2-1.2-1.2s-1.2,0.6-1.2,1.2C29.5,12,30,12.6,30.7,12.6z" fill="#DF5A48"/>
					<path class="st14" d="M28.9,14.4c0-0.7-0.6-1.2-1.2-1.2s-1.2,0.6-1.2,1.2s0.6,1.2,1.2,1.2S28.9,15.1,28.9,14.4z" fill="#5ECD65"/>
                
            </g>
            <g id="svg-yoga" sketch:type="MSLayerGroup" transform="translate(230.000000, 354.000000)">
                <polygon class="st1" points="13.8,27.4 14,29.2 18.9,30.3 23.8,29.2 24.1,27.4" fill="#777777"/>
	<path class="st2" d="M16.1,28.6c2.6,1.3,5.4,2.8,6.2,2.9c3.1,0.5,5.4,1.9,5.2,2.5c0,0-7.3-1-12.7-2C12.6,31.6,14.1,27.5,16.1,28.6z
		" fill="#E2B2A1"/>
	<path class="st1" d="M16.1,28.6c-2-1-3.7-2-4.2-2.1c-1.6-0.6-5.2-1.8-6,0.7c-0.8,2.5,2,3,3.9,3.7c1,0.3,2.8,0.7,4.8,1.1
		C15,30.8,15.4,29.6,16.1,28.6z" fill="#777777"/>
	<path class="st2" d="M21.8,28.6c-2.6,1.3-5.4,2.8-6.2,2.9c-3.1,0.5-5.4,1.9-5.2,2.5c0,0,7.3-1,12.7-2
		C25.3,31.6,23.8,27.5,21.8,28.6z" fill="#E2B2A1"/>
	<path class="st1" d="M21.8,28.6c2-1,3.7-2,4.2-2.1c1.6-0.6,5.2-1.8,6,0.7c0.8,2.5-2,3-3.9,3.7c-1,0.3-2.8,0.7-4.8,1.1
		C22.9,30.8,22.4,29.6,21.8,28.6z" fill="#777777"/>
	<path class="st3" d="M23.8,16.3c0.4-2-1.3-6.1-1.3-6.1c-0.8-0.1-1.7-0.1-2.4-0.1h-2.3c-0.7,0-1.5,0.1-2.4,0.1c0,0-1.8,4-1.5,5.9
		c0.7,1.9,1,4.2-0.2,11.3h5.1l0,0h5.1C23,20.3,23,18.1,23.8,16.3z" fill="#92C895"/>
	<g>
		<path class="st2" d="M7.2,25.8l-4.3-2.4L3.4,23l3.6,1.3l3.1-4c0.6-1.6,0.4-7,1.8-8.8c0.7-0.7,3.4-1.3,3.4-1.3s-0.8,3.9-1.3,3.9
			s-0.4,1.2-0.8,2.9c-0.2,1.6-0.3,2.8-0.7,3.8L7.2,25.8z" fill="#E2B2A1"/>
		<polygon class="st2" points="7.8,24.4 6.3,24.3 6.9,23.1 6,22.7 6.3,22.4 7.6,22.7" fill="#E2B2A1"/>
		<polygon class="st2" points="4.7,24.1 5.5,24.2 5.9,23.2 6.6,22.9 6.5,22.6 5.5,22.6" fill="#E2B2A1"/>
		<polygon class="st2" points="30.1,24.4 31.5,24.3 31,23.1 31.8,22.7 31.6,22.4 30.3,22.7" fill="#E2B2A1"/>
		<polygon class="st2" points="33.1,24.1 32.3,24.2 32,23.2 31.3,22.9 31.4,22.6 32.3,22.6" fill="#E2B2A1"/>
	</g>
	<path class="st4" d="M20.5,8.1h-3.1c0.5,1.4,0,2,0,2s0.1,0.9,1.5,0.9c1.4,0,1.5-0.9,1.5-0.9S20,9.4,20.5,8.1z" fill="#EAA88B"/>
	<path class="st2" d="M22.1,4c0-3.5-1.4-4.3-3.2-4.3c-1.8,0-3.2,0.8-3.2,4.3c0,1.2,0.2,2.1,0.6,2.8c0.7,1.6,2,2.1,2.6,2.1
		s1.9-0.6,2.6-2.1C21.9,6.1,22.1,5.2,22.1,4z" fill="#E2B2A1"/>
	<path class="st5" d="M19.8,7.5c0,0-0.4,0.2-0.9,0.2c-0.5,0-0.9-0.2-0.9-0.2c0-0.1,0.3-0.4,0.5-0.4c0.1,0,0.4,0.1,0.4,0.1
		s0.3-0.1,0.4-0.1C19.5,7.2,19.8,7.5,19.8,7.5z" fill="#D88268"/>
	<path class="st6" d="M19.8,7.5c0,0-0.4,0.3-0.9,0.3c-0.5,0-0.9-0.3-0.9-0.3s0.1-0.1,0.6-0.1c0.1,0,0.2,0.1,0.3,0.1
		c0.1,0,0.2-0.1,0.2-0.1C19.7,7.4,19.8,7.5,19.8,7.5z" fill="#CC684E"/>
	<ellipse class="st7" cx="18.9" cy="0" rx="1.7" ry="1.1" fill="#87625C"/>
	<path class="st8" d="M22.3,4.2c0-3.5-1-4.4-3.3-4.4s-3.3,0.9-3.3,4.4c0,0,4.9-1,4.9-2.3C20.5,3.2,22.3,4.2,22.3,4.2z" fill="#A07467"/>
	<g>
		<path class="st2" d="M15.4,5.3c0.2,0.9,0.4,1,0.7,0.9l-0.3-2.1C15.5,4.2,15.2,4.3,15.4,5.3z" fill="#E2B2A1"/>
		<path class="st2" d="M22.1,4.1l-0.3,2.1c0.3,0.1,0.5,0,0.7-0.9C22.6,4.3,22.4,4.2,22.1,4.1z" fill="#E2B2A1"/>
	</g>
	<g>
		<path class="st8" d="M16,4.3c0-0.1,0-0.2,0-0.3c0-0.1,0-0.2,0-0.2L15.6,4c0,0.1,0,0.1,0,0.2c0,0,0,0,0.1,0c0,0,0,0,0,0
			c0.1,0.1,0.1,0.2,0.2,0.4C15.9,4.6,16,4.7,16,4.3z" fill="#A07467"/>
		<path class="st8" d="M21.9,4.1c0,0.1,0,0.2,0,0.3C21.8,4.6,22,4.5,22,4.5c0.1-0.2,0.1-0.3,0.2-0.4c0.1,0,0.1,0,0.1,0
			c0-0.1,0-0.1,0-0.2l-0.4-0.1C21.9,3.9,21.9,4,21.9,4.1" fill="#A07467"/>
	</g>
	<path class="st2" d="M25.2,20.8c-0.4-1-0.5-2.2-0.7-3.8c-0.4-1.6-0.3-2.9-0.8-2.9c-0.5,0-1.3-3.9-1.3-3.9s2.7,0.6,3.4,1.3
		c1.4,1.8,1.2,7.2,1.8,8.8l3.1,4l3.6-1.3l0.6,0.3l-4.3,2.4L25.2,20.8z" fill="#E2B2A1"/>
            </g>
            <g id="svg-spiders" sketch:type="MSLayerGroup" transform="translate(39.000000, 73.000000)" fill="#666666">
                <path class="st0" d="M15.6,17.7c-1.3,0-2.4,1.6-2.4,3.6s1.1,3.6,2.4,3.6s2.4-1.6,2.4-3.6S16.9,17.7,15.6,17.7z" fill="#E27C3F"/>
		<path class="st0" d="M15.6,16.1c0.8,0,1.5-0.8,1.5-1.9s-0.7-1.9-1.5-1.9S14,13.3,14,14.3S14.7,16.1,15.6,16.1z" fill="#E27C3F"/>
		<path d="M21.5,15.4C21.5,15.4,21.5,15.4,21.5,15.4c0.2,0,0.4-0.1,0.6-0.2l7.6-5.4c0.4-0.3,0.5-0.8,0.2-1.1
			c-0.3-0.4-0.8-0.4-1.2-0.2l-7.4,5.2l-2.6-0.2c0,0,0-0.1,0-0.1l2.3-3c0.1-0.1,0.1-0.2,0.2-0.4L22.4,2c0.1-0.4-0.2-0.8-0.7-0.9
			c-0.5-0.1-0.9,0.2-0.9,0.7l-1.2,7.9l-1.7,2.2c-0.2-0.2-0.4-0.3-0.5-0.5l0.4-1.1c0.2-0.4-0.1-0.9-0.5-1c-0.4-0.1-0.9,0.1-1.1,0.5
			l-0.4,1.1c0,0-0.1,0-0.1,0c0,0-0.1,0-0.2,0L15,9.7c-0.2-0.4-0.6-0.6-1.1-0.5c-0.4,0.1-0.7,0.6-0.5,1l0.4,1.1
			c-0.2,0.1-0.4,0.3-0.5,0.4l-1.7-2.2l-1.2-7.9C10.3,1.2,9.9,0.9,9.5,1C9,1.1,8.7,1.5,8.8,1.9L10,10c0,0.1,0.1,0.3,0.2,0.4l2.3,3
			c0,0,0,0.1,0,0.1l-2.6,0.2L2.4,8.5C2.1,8.3,1.6,8.3,1.3,8.7C1,9.1,1.1,9.6,1.5,9.8l7.6,5.4c0.1,0.1,0.3,0.2,0.5,0.2c0,0,0,0,0.1,0
			l2.8-0.2c0,0.1,0,0.1,0.1,0.2L9.7,17c0,0-0.1,0-0.1,0.1l-5.5,4.3c-0.4,0.3-0.4,0.8-0.1,1.1c0.2,0.2,0.4,0.3,0.6,0.3
			c0.2,0,0.4-0.1,0.5-0.2l5.4-4.3l2.8-1.6c0,0,0.1,0.1,0.1,0.1c-0.9,0.7-1.6,1.8-1.8,3.1l-3.2,4.7c0,0.1-0.1,0.1-0.1,0.2L7,29.7
			c-0.1,0.4,0.1,0.9,0.6,1c0.1,0,0.1,0,0.2,0c0.4,0,0.7-0.2,0.8-0.6l1.3-4.6l1.7-2.6c0.5,2.1,2,3.7,3.9,3.7c1.9,0,3.4-1.5,3.9-3.6
			l1.8,2.6l1.3,4.6c0.1,0.4,0.4,0.6,0.8,0.6c0.1,0,0.1,0,0.2,0c0.4-0.1,0.7-0.6,0.6-1L22.8,25c0-0.1-0.1-0.2-0.1-0.2l-3.2-4.7
			c-0.3-1.4-0.9-2.5-1.9-3.2c0,0,0,0,0.1-0.1l2.8,1.6l5.4,4.3c0.2,0.1,0.3,0.2,0.5,0.2c0.2,0,0.5-0.1,0.6-0.3
			c0.3-0.3,0.2-0.8-0.1-1.1l-5.5-4.3c0,0-0.1-0.1-0.1-0.1l-2.9-1.6c0-0.1,0-0.1,0.1-0.2L21.5,15.4z M15.6,12.4
			c0.8,0,1.5,0.8,1.5,1.9s-0.7,1.9-1.5,1.9S14,15.3,14,14.3S14.7,12.4,15.6,12.4z M18,21.3c0,2-1.1,3.6-2.4,3.6
			c-1.3,0-2.4-1.6-2.4-3.6s1.1-3.6,2.4-3.6C16.9,17.7,18,19.4,18,21.3z"/>   
		
            </g>
            <g id="svg-carrots" sketch:type="MSLayerGroup" transform="translate(42.000000, 124.000000)">
                
				<path id="Fill-1153" sketch:type="MSShapeGroup" class="st0" d="M29.5,10.1c-2.3-0.9-4.8-0.7-7.1,1.1l-1,0.8
					c-0.2,0.2-0.3,0.3-0.5,0.5c-1,1.1-2.2,2.6-3.4,4.3l-0.7,1c-1.1,1.6-2.3,3.4-3.4,5.3l-0.7,1.1c-1.1,1.9-2.2,3.8-3.1,5.5L9,31
					c-2.1,3.9-3.3,6.9-3,7.3c1,1,19.8-9.4,25.7-14.9c2.9-2.7,3.5-5.8,2.4-8.6L29.5,10.1" fill="#E67E22"/>
				<path id="Fill-1154" sketch:type="MSShapeGroup" class="st1" d="M10.6,32.5L9,31l0.6-1.2l1.8,1.8c0.2,0.2,0.2,0.6,0,0.9
					C11.2,32.8,10.8,32.8,10.6,32.5" fill="#D35400"/>
				<path id="Fill-1155" sketch:type="MSShapeGroup" class="st1" d="M15.8,27.3l-3-3l0.7-1.1l3.2,3.2c0.2,0.2,0.2,0.6,0,0.9
					C16.4,27.5,16,27.5,15.8,27.3" fill="#D35400"/>
				<path id="Fill-1156" sketch:type="MSShapeGroup" class="st1" d="M21,22.1l-4.2-4.2l0.7-1l4.3,4.3c0.2,0.2,0.2,0.6,0,0.9
					C21.6,22.3,21.2,22.3,21,22.1" fill="#D35400"/>
				<path id="Fill-1157" sketch:type="MSShapeGroup" class="st1" d="M26.2,16.9l-4.8-4.8l0.9-0.8l4.7,4.7c0.2,0.2,0.2,0.6,0,0.9
					C26.9,17.1,26.5,17.1,26.2,16.9" fill="#D35400"/>
				<path id="Fill-1158" sketch:type="MSShapeGroup" class="st2" d="M39.6,9.6L37,9.7l3.7-4.3c0.4-0.5,0.4-1.2,0-1.6
					c-0.5-0.5-1.2-0.6-1.8-0.1l-4.3,3.7l0.2-2.6c0-0.6-0.3-1.1-0.9-1.3c-0.7-0.2-1.4,0.2-1.5,0.9L30.4,11l2.8,2.8L40,12
					c0.6-0.2,1-0.7,0.9-1.3C40.9,10,40.3,9.5,39.6,9.6" fill="#46A046"/>
		
            </g>
            <g id="svg-roller" sketch:type="MSLayerGroup" transform="translate(224.731727, 179.000000)">
                <path class="st1" d="M19.4,9c-0.8,0.7-1.4,1.5-1.9,2.3c-0.6,0.9-1.1,1.9-1.7,2.8c-0.1,0.2-0.2,0.5-0.2,0.8c0,5.4,0,10.8,0,16.2
		c0,0.3-0.1,0.4-0.4,0.4c-0.3,0-0.7,0-1,0c-0.2,0-0.3-0.1-0.3-0.3c0-2,0-4.1,0-6.1c0-2.2,0-4.4,0-6.6c0,0,0-0.1,0-0.1c0,0,0,0-0.1,0
		c-0.2,0.4-0.3,0.7-0.5,1.1c-0.9,1.9-1.9,3.8-3,5.7c-0.1,0.1-0.1,0.3-0.1,0.4c0,1.9,0,3.7,0,5.6c0,0.3-0.1,0.4-0.3,0.3
		c-0.4,0-0.7,0-1.1,0c-0.3,0-0.3-0.1-0.3-0.3c0-1,0-2,0-3.1c0-0.1,0-0.1-0.1-0.2c-0.4,0.6-0.9,1.2-1.4,1.7c-0.5,0.6-1.1,1.2-1.7,1.8
		c-0.1,0.1-0.1,0.2-0.3,0.2c-0.7,0-1.3,0-2,0c0.7-0.6,1.3-1.1,1.8-1.7c2.1-2.1,3.7-4.6,5.2-7.1c1.5-2.7,2.7-5.5,4-8.2
		c0.9-1.8,1.8-3.5,3-5.1c1.9-2.6,4.5-3.9,7.8-4c2.3-0.1,4.4,0.5,6.5,1.4C31.8,7,32,7.3,32,7.9c0,7.7,0,15.4,0,23.2
		c0,0.3,0,0.4-0.4,0.4c-0.3,0-0.7,0-1,0c-0.3,0-0.3,0-0.3-0.3c0-1.3,0-2.6,0-3.9c0-6.3,0-12.7,0-19c0-0.3-0.1-0.4-0.3-0.5
		c-1-0.4-2-0.8-3-1c-0.3,0-0.4,0-0.4,0.4c0,8,0,16,0,24c0,0.2-0.1,0.3-0.3,0.3c-0.4,0-0.8,0-1.1,0c-0.2,0-0.2,0-0.2-0.2
		c0-0.1,0-0.2,0-0.2c0-8,0-16,0-23.9c0-0.3-0.1-0.4-0.4-0.4c-1.2,0-2.2,0.3-3.3,0.9C21.1,7.6,21,7.7,21,7.9c0,6.7,0,13.5,0,20.2
		c0,1,0,2,0,3.1c0,0.2,0,0.3-0.3,0.3c-0.4,0-0.8,0-1.2,0c-0.2,0-0.2-0.1-0.2-0.2c0-0.5,0-1.1,0-1.6c0-6.7,0-13.5,0-20.2
		C19.4,9.3,19.4,9.1,19.4,9z" fill="#666666"/>
	<path class="st2" d="M25.7,0.7c0.6,0.1,1.4,0.2,2.1,0.3c1.2,0.2,2.5,0.4,3.7,0.6c0.2,0,0.2,0.1,0.2,0.3c-0.2,1-0.3,1.9-0.5,2.9
		c0,0.2-0.1,0.3-0.4,0.3c-2.2-0.4-4.5-0.7-6.8-1.1c-0.2,0-0.3-0.1-0.3-0.4c0-0.6,0.1-1.3,0.4-1.9C24.4,1,24.8,0.7,25.7,0.7z" fill="#FF9933"/>
	<path class="st3" d="M5.1,21.1c0-0.4,0.2-0.7,0.3-1c0.7-1.6,1.6-3.2,2.5-4.7C8,15.2,8,15.2,8.2,15.2c0.9,0.5,1.8,0.9,2.8,1.4
		c0.1,0.1,0.2,0.1,0.1,0.3C10,18.9,8.9,21,7.8,23c-0.1,0.1-0.1,0.2-0.3,0.1c-0.5-0.3-1.1-0.5-1.6-0.8C5.5,22,5.1,21.7,5.1,21.1z" fill="#0099CC"/>
	<path class="st4" d="M9.4,12.7c0-0.3,0.1-0.5,0.2-0.8c0.6-1.3,1.4-2.5,2-3.8c0.2-0.4,0.4-0.8,0.6-1.2c0.1-0.1,0.1-0.2,0.3-0.1
		c0.9,0.5,1.9,1,2.8,1.5c0.1,0.1,0.2,0.1,0.1,0.3c-1.1,2-2.3,4-3.4,6.1c-0.1,0.1-0.1,0.2-0.3,0.1c-0.6-0.3-1.2-0.6-1.8-1
		C9.6,13.4,9.4,13.1,9.4,12.7z" fill="#009966"/>
	<path class="st5" d="M15.3,4.9c0-0.4,0.2-0.8,0.6-1c1-0.7,2.1-1.2,3.3-1.7c0.7-0.3,1.4-0.7,2.1-1c0.2-0.1,0.2-0.1,0.3,0.1
		C22,2.2,22.4,3.1,22.9,4C23,4.2,23,4.2,22.8,4.3c-2.1,1-4.2,2-6.3,3c-0.1,0-0.2,0.1-0.3,0c-0.3-0.6-0.7-1.2-0.9-1.9
		C15.3,5.3,15.3,5.1,15.3,4.9z" fill="#CC6699"/>
	<path class="st1" d="M11.5,7.5c0,0.6-0.3,0.9-1,0.9c-0.6,0-0.8-0.3-0.8-0.9c0-0.6,0.4-0.9,1-0.9C11.3,6.6,11.5,6.9,11.5,7.5z" fill="#666666"/>
	<path class="st1" d="M17.4,0.9c0.6,0,0.9,0.3,0.9,0.8c0,0.6-0.3,1-1,1c-0.6,0-0.9-0.3-0.9-0.9C16.4,1.2,16.7,0.9,17.4,0.9z" fill="#666666"/>
	<path class="st1" d="M8.6,9.7c0-0.5,0.2-0.8,0.6-0.9c0.5-0.1,0.8,0,1,0.3c0.2,0.4,0.1,1-0.1,1.3c-0.2,0.2-0.8,0.3-1.1,0.2
		C8.6,10.3,8.6,10,8.6,9.7z" fill="#666666"/>
	<path class="st1" d="M6.2,15c0.6,0,0.8,0.3,0.8,0.9c0,0.6-0.3,0.9-0.9,1c-0.6,0-0.8-0.3-0.8-0.9C5.3,15.3,5.6,15,6.2,15z" fill="#666666"/>
	<path class="st1" d="M31.4,0.3c0,0.5-0.3,0.8-0.9,0.8c-0.6,0-1-0.3-1-0.9c0-0.5,0.5-0.9,1-0.9C31-0.6,31.4-0.2,31.4,0.3z" fill="#666666"/>
	<path class="st1" d="M19.5,1.6c-0.5,0-0.9-0.4-0.9-0.8c0-0.5,0.5-1,0.9-1c0.5,0,1,0.4,1,0.9C20.5,1.1,20,1.6,19.5,1.6z" fill="#666666"/>
	<path class="st1" d="M29-0.1c0,0.6-0.3,0.9-0.9,0.9c-0.6,0-0.9-0.3-0.9-0.8c0-0.5,0.4-0.9,0.9-0.9C28.6-1,29-0.7,29-0.1z" fill="#666666"/>
	<path class="st1" d="M5,19c-0.5,0-0.8-0.3-0.8-0.9c0-0.6,0.3-0.9,1-0.9C5.7,17.2,6,17.5,6,18C6,18.6,5.6,19,5,19z" fill="#666666"/>
            </g>
            <g id="svg-decide" sketch:type="MSLayerGroup" transform="translate(46.000000, 319.000000)" fill="#666666">
                <g>
		<path class="st1" d="M9.1,25.8c-0.2,0-0.4,0-0.6,0C7.1,21.5,6.2,17.2,5.1,13c-0.2-0.7,0-1,0.6-1.2c0.5-0.1,1-0.1,1.5-0.2
			c0.1,0,0.1,0,0.2,0c0.4,0,0.9-0.1,1.3-0.1c0.6,0.1,1,0.4,1.2,1c0.1,0.5,0.4,0.8,0.8,1.1c0.5,0.3,1,0.5,1.6,0.4
			c0.5,0.3,1.1,0.1,1.6,0.2c0.5,0,1,0.1,1.5-0.1c0.1,0,0.3,0,0.4,0c0.6,0,1.2,0,1.8,0c1.2,0,2-0.5,2.3-1.7c0.1-0.3,0.3-0.6,0.5-0.8
			c0.4,0,0.9,0,1.3,0c0.5,0,0.9,0,1.4,0c0.4,0.3,0.8,0.2,1.2,0.2c0.3,0.3,0.4,0.7,0.3,1.2c-1,4-1.9,7.9-3,11.8
			c-0.1,0.4-0.3,0.7-0.6,1c-0.2,0-0.4,0-0.6,0c-0.2-0.4-0.6-0.3-0.9-0.3c-2.6-0.3-5.3-0.4-8-0.2C10.9,25.4,9.9,25.3,9.1,25.8z" fill="#EC6C31"/>
		<path class="st2" d="M12.4,14c-0.6,0-1.1-0.1-1.6-0.4c0-2-0.4-3.9-0.9-5.8c-0.1-0.5-0.2-1.2-1-1C8.1,7,8.3,7.6,8.3,8.1
			c0.1,1.1,0.3,2.2,0.4,3.3c-0.4,0-0.9,0.1-1.3,0.1C7.3,10.2,7.2,8.8,7,7.5C6.8,6.6,6.2,5.8,5.6,5.1C5.4,4.8,5.1,4.7,4.7,4.8
			C4.3,5,4.4,5.4,4.5,5.7c0.1,0.4,0.3,0.8,0.4,1.1c0.8,1.6,1.6,3.1,2.3,4.7c-0.5,0.1-1,0.1-1.5,0.2C4.9,9.8,3.8,8,3.2,6
			C2.8,4.8,3,4,3.9,3.6c1-0.5,2-0.3,2.8,0.6C6.9,4.5,7,4.9,7.5,5.1C7.4,4.3,7.4,3.6,7.3,2.9C7.1,1.5,7.3,0.2,8.7-0.6
			c0.4,0,0.8,0,1.2,0c1.5,0.6,1.3,2.2,1.9,3.3c0.2-1.4,0.2-2.8,1.8-3.3c0.4,0,0.8,0,1.2,0c0.9,0.4,1.2,1.2,1.3,2.1
			c0.1,1.1,0.1,2.1,0.2,3.2c0.5-1.2,0.8-2.4,1.2-3.5c0.4-1.1,1.4-1.6,2.5-1.3c1,0.2,1.5,0.9,1.4,2.2c-0.1,1-0.2,2-0.4,3.1
			c0.3,0,0.3-0.2,0.4-0.3c0.5-1,0.8-1.9,1.4-2.9c0.5-0.9,1.4-1.1,2.5-0.6c0.9,0.4,1.3,1,1.1,2c-0.2,1-0.5,1.9-0.9,2.8
			c-0.2,0.6-0.3,1,0.1,1.6c0.4,0.5,0.3,1.1,0.1,1.7c-0.3,0.8-0.7,1.5-1.1,2.3c-0.4,0-0.8,0-1.2-0.2c0.3-0.7,0.6-1.4,0.9-2.2
			c0.2-0.4,0.4-0.9-0.1-1.2c-0.5-0.3-0.9,0-1.2,0.4c-0.6,0.9-0.7,1.9-1,2.9c-0.4,0-0.9,0-1.3,0c0.2-1,0.4-2,0.7-3
			c0.1-0.4,0.1-0.8-0.4-1c-0.5-0.2-0.8,0.1-1,0.5c-0.2,0.4-0.3,0.7-0.5,1.1c-0.6,1.6-1.1,3.2-1.7,4.8c-0.6,0-1.2,0-1.8,0
			c0-0.7,0.4-1.3,0.5-2c0.5-1.6,1.1-3.2,1.3-5c0-0.4,0.1-0.8-0.4-1c-0.5-0.1-0.7,0.3-0.9,0.6c-0.1,0.2-0.1,0.4-0.2,0.6
			c-1,2.2-1.1,4.4-0.7,6.7c-0.5,0.2-1,0.2-1.5,0.1c0.2-1.5-0.2-2.9-0.2-4.4c0-1-0.3-2.1-0.5-3.1C13.2,6.3,13,6,12.6,6.1
			C12.2,6.1,12,6.4,12,6.8c0,0.3,0,0.5,0,0.8C12.1,9.8,12.2,11.9,12.4,14z M10.7,6c-0.2-1.6-0.4-3-0.7-4.3C10,1.2,9.8,0.8,9.2,0.9
			C8.7,1,8.5,1.3,8.5,1.8c-0.1,1,0.2,2,0.2,3c0,0.3,0.2,0.5,0.5,0.6C9.7,5.4,10.1,5.7,10.7,6z M14.9,6.6c0-1.6,0-3.1,0-4.7
			c0-0.9-0.6-1.2-1.2-0.9c-0.5,0.3-0.9,3.4-0.4,3.6C14.2,5,14.4,5.8,14.9,6.6z M24.9,3.4c0-0.4-0.1-0.7-0.5-0.8
			c-0.4-0.1-0.7,0.1-0.9,0.4c-0.6,1-1,2.1-1.4,3.2c-0.2,0.6,0,0.9,0.7,0.7C23.9,6.5,25,4.8,24.9,3.4z M19.4,6c0.3-1.3,0.6-2.6,0.6-4
			c0-0.4,0-0.7-0.5-0.8c-0.4-0.1-0.7,0.1-0.9,0.5C18.2,3.3,17.4,4.9,19.4,6z" fill="#F6942B"/>
		<path class="st3" d="M12.4,14c-0.1-2.1-0.3-4.3-0.4-6.4c0-0.3,0-0.5,0-0.8c0-0.4,0.2-0.7,0.6-0.7C13,6,13.2,6.3,13.3,6.7
			c0.2,1,0.5,2.1,0.5,3.1c0,1.5,0.4,2.9,0.2,4.4C13.5,14.2,12.9,14.3,12.4,14z" fill="#FBC01B"/>
		<path class="st3" d="M15.5,14.1c-0.4-2.3-0.3-4.6,0.7-6.7c0.1-0.2,0.1-0.4,0.2-0.6c0.2-0.4,0.5-0.8,0.9-0.6c0.5,0.1,0.4,0.6,0.4,1
			c-0.2,1.7-0.8,3.3-1.3,5c-0.2,0.7-0.5,1.3-0.5,2C15.8,14,15.6,14,15.5,14.1z" fill="#FBC01B"/>
		<path class="st3" d="M17.7,14c0.6-1.6,1.1-3.2,1.7-4.8c0.1-0.4,0.3-0.8,0.5-1.1c0.2-0.4,0.5-0.7,1-0.5c0.5,0.2,0.5,0.6,0.4,1
			c-0.2,1-0.5,2-0.7,3c-0.3,0.2-0.4,0.5-0.5,0.8C19.7,13.5,18.9,14,17.7,14z" fill="#FBC01B"/>
		<path class="st3" d="M8.7,11.5c-0.1-1.1-0.3-2.2-0.4-3.3C8.3,7.6,8.1,7,8.8,6.8c0.8-0.2,0.9,0.5,1,1c0.5,1.9,0.9,3.8,0.9,5.8
			c-0.4-0.3-0.7-0.6-0.8-1.1C9.8,11.9,9.4,11.5,8.7,11.5z" fill="#FBC01B"/>
		<path class="st3" d="M7.2,11.6C6.5,10,5.7,8.4,4.9,6.9C4.7,6.5,4.6,6.1,4.5,5.7C4.4,5.4,4.3,5,4.7,4.8c0.3-0.1,0.7-0.1,0.9,0.2
			C6.2,5.8,6.8,6.6,7,7.5c0.2,1.3,0.3,2.7,0.5,4.1C7.4,11.6,7.3,11.6,7.2,11.6z" fill="#FBC01B"/>
		<path class="st3" d="M21.9,11.5c0.3-1,0.4-2,1-2.9c0.3-0.4,0.6-0.8,1.2-0.4c0.5,0.3,0.3,0.8,0.1,1.2c-0.3,0.7-0.6,1.4-0.9,2.2
			C22.8,11.5,22.4,11.5,21.9,11.5z" fill="#FBC01B"/>
		<path class="st3" d="M10.7,6c-0.6-0.3-1-0.6-1.5-0.7c-0.3,0-0.5-0.3-0.5-0.6c-0.1-1-0.3-2-0.2-3c0-0.5,0.2-0.9,0.7-0.9
			c0.6-0.1,0.8,0.3,0.9,0.8C10.3,3.1,10.5,4.5,10.7,6z" fill="#FBC01B"/>
		<path class="st3" d="M14.9,6.6c-0.4-0.8-0.6-1.6-1.6-2c-0.5-0.2-0.1-3.4,0.4-3.6c0.6-0.3,1.1,0,1.2,0.9C14.9,3.4,14.9,5,14.9,6.6z"
			 fill="#FBC01B"/>
		<path class="st3" d="M24.9,3.4c0,1.4-1,3.2-2,3.4C22.3,7,22,6.7,22.2,6.1C22.6,5,23,4,23.6,2.9c0.2-0.3,0.5-0.5,0.9-0.4
			C24.9,2.7,24.9,3,24.9,3.4z" fill="#FBC01B"/>
		<path class="st3" d="M19.4,6c-2-1.2-1.2-2.7-0.7-4.2c0.1-0.4,0.4-0.6,0.9-0.5C20,1.4,20,1.7,20,2.1C19.9,3.4,19.6,4.8,19.4,6z" fill="#FBC01B"/>
</g>
<g>
		<path class="st4" d="M11.5,24.6c1.3,4.1,4.5,5.9,8.3,6.8c4,1,7.9,0.7,11.7-0.8c2.8-1.1,4.9-3,5.8-6" fill="#FEFEFE"/>
		<path class="st5" d="M20.5,15.3c0.9-1.4,2.4-1.5,3.8-1.5c1.7,0,3.3,0.5,4.9,1.1c2.6,1.1,5,2.5,6.4,5c0.8,0.9,1,2,0.8,3.2
			c-0.3,1.3-1.2,2.1-2.2,3c-2.3,2-5.2,2.4-8,3c-0.6,0.1-1.2,0.2-1.6-0.3c-0.3-0.4-0.4-0.8-0.2-1.3c0.9-0.9,0.7-1.9,0.7-3.1
			c-0.1-1.7-0.8-3.2-1.3-4.8c-0.3-1-1.1-1.7-1.3-2.7c-0.1-0.4-0.6-0.4-0.9-0.5C20.9,16.1,20.4,16,20.5,15.3z" fill="#F69229"/>
		<path class="st6" d="M20.5,15.3c0.1,0.5,0.6,0.6,0.9,0.8c-0.1,0.7-0.6,0.7-1.1,0.7c-0.6,0-1.2,0.2-1.7,0.6
			c-0.1,0.1-0.3,0.3-0.4,0.3c-1.2,0-1.8,0.9-2.6,1.8c-1.2,1.4-1.2,2.4-0.4,4.1c0.5,1.2,1.4,1.6,2.3,2.2c1.3,0.8,2.8,0.6,4,1.5
			c0.4,0.3,1,0,1.5-0.1c0.5-0.1,1.1-0.4,1.4,0.3c-0.1,0.5,0,0.9,0.2,1.3c-1.6,0.4-3,0.5-4.7,0c-1.5-0.4-2.8-1.2-4.3-1.7
			c-0.9-0.3-1.5-0.9-1.8-1.8c-0.2-0.5-0.4-1.1-0.9-1.6c-0.1,1.3,0.5,2.3,1.2,3.2c1.6,1.8,3.7,2.7,5.9,3.2c3.6,0.8,7.1,0.7,10.5-0.6
			c2.9-1.1,5.1-3,5.4-6.3c0.2-1.2-0.2-2.2-0.5-3.3c1.2,0.7,1.5,2,1.9,3.3c0,0.5,0,1,0,1.5c-0.4,2.5-1.9,4.2-4,5.3c-6,3.2-12,3.2-18,0
			c-2.1-1.1-3.6-2.8-4-5.3c0-0.5,0-1,0-1.5c0.2-1.2,0.8-2.3,1.5-3.2c0.7-0.9,1.7-1.6,2.2-2.7c0.1-0.1,0.2-0.3,0.4-0.4
			C17.1,16.3,18.6,15.1,20.5,15.3z" fill="#78A2AC"/>
		<path class="st4" d="M24.5,27.5c-0.5-0.4-1-0.2-1.5,0c-0.7,0.3-1.5,0.3-2.1-0.2c-0.1,0-0.1-0.1-0.2-0.1c-1.6,0.1-2.7-1.1-4.1-1.4
			c-0.8-0.2-1.3-0.6-1.3-1.4c0-0.1,0-0.3-0.1-0.4c-1-0.7-0.9-1.7-0.8-2.7c0-0.1-0.1-0.3-0.1-0.4c0-0.8,2.4-3.1,3.2-3.2
			c0.2,0,0.5,0,0.7-0.2c0.7-0.8,1.5-0.9,2.5-0.9c0.3,0,0.5-0.2,0.7-0.4c0.8-0.2,1.2,0.2,1.3,1c0,0.3,0.1,0.6,0.2,0.8
			c1.1,1.1,1.2,2.6,1.8,3.9c0.5,1.3,0.5,2.8,0.7,4.3C25.4,26.7,25,27.1,24.5,27.5z" fill="#FEFEFE"/>
		<path class="st4" d="M36.1,23.2c0.3,2.5-1.1,4.1-2.9,5.4c-1.7,1.2-3.7,1.8-5.8,2.1c-4.1,0.6-8,0.2-11.6-2.1c-1.4-0.9-2.5-2.1-3-3.8
			c-0.2-0.6-0.2-1.2,0.1-2c0.5,1,1.2,1.6,1.3,2.5c0.1,0.5,0.4,1,0.9,1.1c1.6,0.4,2.9,1.7,4.7,1.9c1.1,0.1,2.1,0.9,3.2,0.5
			c0.6-0.2,1.1-0.2,1.7-0.1c0.3,0.2,0.7,0.2,1,0.2c3.4-0.5,6.7-1.4,9.3-3.8C35.6,24.6,35.8,23.9,36.1,23.2z" fill="#FEFEFE"/>
		<path class="st7" d="M31.1,20.3c-1.1,0-2.1-0.8-2.1-1.7c0-1,0.7-1.6,1.8-1.6c1.5,0,2.4,0.7,2.4,1.9C33.2,19.7,32.4,20.3,31.1,20.3z
			" fill="#855C51"/>
		<path class="st3" d="M26.7,17.9c-0.6-0.2-1.2-0.3-1.8-0.5c-0.5-0.1-1-0.4-0.9-0.9c0-0.5,0.3-1.1,0.9-1.4c1.1-0.5,3.1,0.4,3,1.6
			C27.8,17.6,27.6,17.9,26.7,17.9z" fill="#FBC01B"/>
		<path class="st7" d="M30.4,24.6c0,0.8-0.2,1.4-1.2,1.4c-1.2,0-2.2-0.8-2.1-1.8c0-0.9,0.6-1.5,1.3-1.5
			C29.6,22.8,30.4,23.5,30.4,24.6z" fill="#855C51"/>
		<path class="st1" d="M27.5,19c0.9,0,1.5,0.6,1.6,1.4c0.1,0.8-0.6,0.9-1.1,1.1c-0.2,0.1-0.3,0.1-0.5,0.1c-0.7,0.1-1.6,0.8-1.9-0.5
			c-0.3-1.2,0.2-1.9,1.5-2.1C27.3,19,27.4,19,27.5,19z" fill="#EC6C31"/>
		<path class="st3" d="M32.4,23.8c-0.8-0.1-1.6,0-1.6-1c0-1,0.7-1.7,1.7-1.6c1.1,0,1.6,0.5,1.6,1.6C34,24,33,23.6,32.4,23.8z" fill="#FBC01B"/>
		<path class="st6" d="M20,23c-0.1,0.5-0.1,1.1-0.8,1.1c-0.3,0-0.7-0.2-0.6-0.5c0.2-0.5,0.4-1.1,0.9-1.2C20,22.3,19.9,22.8,20,23z" fill="#78A2AC"/>
		<path class="st6" d="M23.3,22.2c-0.1,0.5-0.1,1.1-0.8,1.2c-0.3,0-0.7-0.2-0.6-0.5c0.2-0.5,0.4-1.1,0.9-1.2
			C23.3,21.5,23.1,22,23.3,22.2z" fill="#78A2AC"/>
		<path class="st6" d="M22.5,25.5c-0.1,0.5-0.2,1-0.9,0.9c-0.3,0-0.7-0.2-0.5-0.6c0.3-0.4,0.4-1.1,1-1.1
			C22.5,24.8,22.5,25.2,22.5,25.5z" fill="#78A2AC"/>
</g>
<g id="Question_Mark">
		<path class="st5" d="M37.3,14c-0.3,0.2-0.8,0.1-1.1,0c-0.3-0.1-0.4,0.1-0.6,0.5c-0.1,0.3-0.5-0.1-0.7-0.3c-0.2-0.1-0.4-0.1,0-0.5
			c0.3-0.3,0.5-0.5,0.8-0.4c0.4,0,1.2,0.1,1.4-0.4c0.1-0.4-0.1-0.8-0.4-1.1c-0.4-0.2-0.7-0.1-0.9,0.2c-0.1,0.2-0.1,0.4-0.1,0.5
			c-0.1,0.1-0.4,0-0.7,0c-0.3,0-0.4-0.1-0.5-0.2c0-0.1,0-0.2,0-0.3c0.1-0.5,0.5-1.2,1.5-1.1c0.8,0.1,1.7,0.6,1.9,1.4
			C38.2,13.2,37.7,13.9,37.3,14z M34.5,14.9c0.2,0.1,0.5,0.2,0.5,0.5c0,0.3-0.3,0.5-0.7,0.5c-0.4-0.1-0.5-0.4-0.5-0.7
			C33.9,14.9,34.3,14.8,34.5,14.9z" fill="#F69229"/>
</g>
<g id="Question_Mark_1_">
		<path class="st5" d="M33,9c-0.4,0.3-1.1,0.4-1.6,0.3s-0.5,0.2-0.7,0.9c-0.1,0.4-0.7,0-1-0.2c-0.3-0.1-0.5-0.1-0.1-0.7
			c0.4-0.5,0.5-0.8,1.1-0.8c0.6,0,1.7-0.2,1.8-0.9c0.1-0.6-0.3-1.2-0.8-1.4c-0.5-0.2-1,0.1-1.2,0.5c-0.1,0.3,0,0.6-0.1,0.7
			c-0.1,0.2-0.5,0.2-0.9,0.1c-0.4,0-0.6,0-0.7-0.1c-0.1-0.2,0-0.3,0-0.5c0-0.7,0.4-1.9,1.8-1.9c1.1-0.1,2.5,0.4,3,1.5
			C34,7.6,33.4,8.7,33,9z M29.3,10.8c0.4,0.1,0.7,0.2,0.8,0.6c0.1,0.4-0.2,0.8-0.8,0.8c-0.6,0-0.8-0.4-0.8-0.8
			C28.4,11,28.9,10.7,29.3,10.8z" fill="#F69229"/>
</g>
            </g>
            <g id="svg-gossip" sketch:type="MSLayerGroup" transform="translate(63.000000, 263.500000) scale(-1, 1) translate(-63.000000, -263.500000) translate(37.000000, 254.000000)">
               <path class="st1" d="M26.9,19.3c0.4-0.9,0.5-1.3,0.7-2c0.7-2.1,0-3.7-2.2-4.3c-2.7-0.8-5.4-0.3-8.1,0.1c-3,0.5-4.7-0.8-5-3.8
		c-0.4-3.9,2-7.2,6.2-8.3c4.4-1.2,9.6,0.7,11.9,4.3c2.2,3.5,2.1,8.8-1,12.1C28.5,18.6,28.2,18.7,26.9,19.3z" fill="#098FD1"/>
	<path class="st2" d="M6.3,27.1c-2.8-1-5.3-4.8-5.3-8.1c0-2.7,1.7-5,4.4-5.9c2-0.7,4-0.8,6-0.3c3,0.7,4.8,3.2,4.6,6.2
		c-0.2,2-1.3,3.4-3.3,4c-2.2,0.6-4.5,0.8-6.7-0.1c-1.1-0.4-1.2,0-1.2,0.9C4.8,24.8,5.6,26.1,6.3,27.1z" fill="#F4B400"/>
	<path class="st3" d="M22.7,32.9c0.5-2.2,1-3.6-1.2-3.2c-1.7,0.3-3.6,0.8-5.2,0.3c-2.5-0.7-3.5-3.7-1.9-5.7c1.5-1.9,3.7-2.6,6-2.2
		c2.4,0.4,4.5,1.3,5.5,3.7C27,28.1,25.2,31.4,22.7,32.9z" fill="#D6618E"/>
	<path class="st4" d="M20.6,19.4c0.3,0,0.5-0.1,0.8-0.1c0.2,0,0.5,0.1,0.7,0.3c-0.3,0-0.5,0.1-0.8,0.1c-0.2,0-0.5-0.1-0.7-0.1
		C20.6,19.5,20.6,19.5,20.6,19.4z" fill="#F5ADD9"/>
	<path class="st5" d="M8.6,27.4c0.4-0.3,0.6-0.5,0.7-0.5c0.4,0.1,0.8,0.2,1.3,0.4C10,27.7,9.5,27.6,8.6,27.4z" fill="#3788C3"/>
	<path class="st6" d="M24.3,19.5c0,0-1.4,0.6-3,0.6s-3-0.6-3-0.6c0-0.2,1-1.2,1.6-1.3c0.4-0.1,1.4,0.3,1.4,0.3s1-0.3,1.4-0.3
		C23.4,18.3,24.3,19.5,24.3,19.5z" fill="#F277A9"/>
	<path class="st3" d="M24.3,19.5c0,0-1.4,1.1-3,1.1s-3-1.1-3-1.1s0.3-0.3,2.1-0.5c0.3,0,0.7,0.2,0.9,0.2s0.6-0.2,0.8-0.2
		C24,19.2,24.3,19.5,24.3,19.5z" fill="#D6618E"/>
	<path class="st7" d="M11.6,27.3c0,0-1,0.5-2.2,0.5s-2.2-0.5-2.2-0.5c0-0.1,0.7-0.9,1.2-0.9c0.3,0,1,0.2,1,0.2s0.7-0.2,1-0.2
		C10.9,26.4,11.6,27.3,11.6,27.3z" fill="#1BAAE2"/>
	<path class="st1" d="M11.6,27.3c0,0-1,0.8-2.2,0.8s-2.2-0.8-2.2-0.8S7.5,27,8.8,27c0.2,0,0.5,0.2,0.7,0.2S9.9,27,10,27
		C11.4,27,11.6,27.3,11.6,27.3z" fill="#098FD1"/>
	<path class="st8" d="M20.8,33.2c0,0-0.8,0.4-1.7,0.4c-0.9,0-1.7-0.4-1.7-0.4c0-0.1,0.6-0.7,0.9-0.7c0.2,0,0.8,0.2,0.8,0.2
		s0.6-0.2,0.8-0.2C20.3,32.5,20.8,33.2,20.8,33.2z" fill="#FCD25E"/>
	<path class="st2" d="M20.8,33.2c0,0-0.8,0.6-1.7,0.6c-0.9,0-1.7-0.6-1.7-0.6s0.2-0.2,1.2-0.3c0.2,0,0.4,0.1,0.5,0.1
		c0.1,0,0.3-0.1,0.4-0.1C20.6,33,20.8,33.2,20.8,33.2z" fill="#F4B400"/>
            </g>
            <g id="svg-haste" sketch:type="MSLayerGroup" transform="translate(37.000000, 180.000000)">
     <path class="st1" d="M30.6,6.2c-0.7,0.5-1.4,1-2.1,1.7c-0.6-0.3-0.9-0.9-1.3-1.4c1.1-1.2,2.3-2.2,3.4-3.3C30.8,3,31,2.8,31.3,2.6
		c0.8-0.5,1.5-1.3,2.3-1.9c0.6-0.5,1.1-1,1.7-1.4c0.6-0.3,1.2-0.4,1.6,0c0.4,0.3,0.6,1.1,0.3,1.7c-0.2,0.4-0.2,0.9-0.8,0.9
		c-0.5-0.3-0.9-0.1-1.3,0.3c-1.1,1.2-2.3,2.3-3.6,3.4 M32.7,3.4c0-0.2-0.1-0.4-0.3-0.4C32.1,3,32,3.2,32,3.4c0,0.2,0.2,0.3,0.4,0.3
		C32.6,3.7,32.7,3.6,32.7,3.4z M35.3,1c0.2,0,0.3-0.1,0.3-0.3c0-0.2-0.1-0.4-0.3-0.3c-0.2,0-0.3,0.1-0.3,0.3C35,0.9,35.1,1,35.3,1z
		 M29.7,6c0-0.2-0.1-0.3-0.3-0.3c-0.2,0-0.3,0.1-0.4,0.3c0,0.2,0.1,0.4,0.3,0.4C29.5,6.4,29.7,6.2,29.7,6z" fill="#666564"/>
	<path class="st2" d="M12.1,10c0.5-0.9,1.3-1.4,2.1-2c0.9-0.5,1.9-1,2.9-1.1c2.7-0.4,5,0.3,7,2.2c-0.3,0.4-0.6,0.8-1.1,1
		c-0.1-0.1-0.3-0.1-0.4,0c-0.1,0.1,0,0.3,0.1,0.4c0.2,0.3,0.4,0.5,0.6,0.8c0.9,1.6,1.3,3.3,1.3,5.1c0,0.6,0,0.6,0.2,0.9
		c0.2-1.1,0.2-2.1,0-3.1c0.3-0.3,0.6-0.6,1-0.8c0.6-0.4,1.1-1,1.7-1.3c0.2,0.1,0.5,0.3,0.7,0.4c0.2,0.3,0.5,0.4,0.8,0.6
		c0.8,0.5,1.6,0.9,2.4,1.3c0.7,0.4,0.9,0.9,0.7,1.7c-0.1,0.3-0.2,0.7-0.3,1c-0.4,1.3-0.7,2.6-1.1,4c-0.2,0.7-0.6,1.1-1.4,1.1
		c-0.7,0-1.4-0.1-2.1-0.1c-2.3-0.1-4.5,0.3-6.8,0.9c-3.4,0.8-6.7-0.4-8.6-3.3c-0.8-1.1-1.1-2.4-1.4-3.7c-0.1-1.2,0-2.4,0.3-3.5
		C11.1,11.7,11.7,10.9,12.1,10z" fill="#FCEFB9"/>
	<path class="st3" d="M27.5,12.2c-0.6,0.3-1.1,0.9-1.7,1.3c-0.3,0.3-0.6,0.6-1,0.8c-0.3,0.1-0.2-0.2-0.3-0.3
		c-0.3-1.3-0.8-2.4-1.5-3.4c-0.1-0.2-0.1-0.3,0-0.5c0.4-0.3,0.8-0.6,1.1-1c0.5-0.2,0.8-0.7,1.3-1.1C26,7.6,26.5,7,27.2,6.5
		c0.4,0.5,0.7,1,1.3,1.4c-0.3,0.7-0.3,1.2,0.3,1.9c0.5,0.8,0.5,0.9-0.2,1.5C28.2,11.5,27.8,11.8,27.5,12.2z" fill="#D0D2D5"/>
	<path class="st4" d="M10.6,16.2c0.2,1.3,0.6,2.6,1.4,3.7c2,2.9,5.3,4.1,8.6,3.3c2.2-0.6,4.5-1,6.8-0.9c0.7,0,1.4,0.1,2.1,0.1
		c0.8,0,1.2-0.4,1.4-1.1c0.4-1.3,0.7-2.6,1.1-4c0.1-0.3,0.2-0.7,0.3-1c0.2-0.8,0-1.3-0.7-1.7c-0.8-0.5-1.6-0.9-2.4-1.3
		c-0.3-0.2-0.6-0.3-0.8-0.6c1.4,0.1,2.8,0.2,4.2,0.6c0.8,0.2,1.5,0.7,2.2,1.3c0.6,0.5,1.3,0.8,2,0.9c0.2,0.1,0.5,0.1,0.7,0.1
		c0.6,0.1,1.2,0.1,1.9,0.1c1.2,0,2.3,0.2,3.4,0.6c1.9,0.7,3.1,1.9,3.2,4.1c0,0.1,0,0.1,0,0.2c-0.1,0.1-0.1,0.2-0.1,0.3
		c-0.2,1.1-0.7,1.9-1.6,2.4c0,0-0.1,0-0.1,0c0,0-0.1,0-0.1,0.1c-0.3,0-0.6,0.1-0.9,0.1c-1.5,0.1-2.6,0.9-3.6,2
		c-0.4,0.5-1,0.8-1.4,1.3c-1.3,1-2.7,1.5-4.4,1.5c-1.4,0-2.8,0.1-4.2,0.6c-1,0.3-1.8,0.9-2.5,1.7c-0.3,0.4-0.6,0.7-0.9,1.1
		c-0.2,0.1-0.4,0.2-0.6,0.3c-0.1,0-0.3,0-0.4,0.1c-0.2,0-0.5-0.1-0.7,0.1c-0.1,0-0.1,0-0.2,0c-0.4-0.1-0.7-0.1-1.1-0.2
		c0-0.1,0-0.1-0.1-0.1c-0.2,0-0.3-0.2-0.5-0.3c-0.6-0.7-1.2-1.4-1.8-2.1c-1.2-1.3-2.8-1.9-4.6-2.2c-0.8-0.1-1.7-0.2-2.5-0.2
		c-1.6,0-3.1-0.2-4.5-1.1c0,0,0,0,0,0c-0.1-0.1-0.2-0.2-0.3-0.2c-0.6-0.5-1.2-1.1-1.7-1.7c-0.5-0.6-0.8-1.3-1-2.1c0,0,0,0,0,0
		c0,0,0-0.1,0-0.1c0,0,0,0,0,0C5.9,20.2,6.3,19,7.3,18c0,0,0-0.1,0.1-0.2c0.3-0.1,0.5-0.3,0.7-0.5C8.8,16.8,9.6,16.4,10.6,16.2z
		 M34.2,16.5c0-0.2,0-0.3-0.1-0.4c-0.5-0.4-1.1-0.3-1.2,0.4c0,0.2-0.1,0.4-0.1,0.5c-0.4,1.5-0.8,3-1.2,4.5c-0.1,0.4-0.1,0.7,0.4,0.8
		c0.6,0.1,0.7,0.1,0.9-0.6c0.4-1.7,0.9-3.4,1.3-5.1C34.2,16.7,34.2,16.6,34.2,16.5z M36,23.6c0.4,0,0.5-0.2,0.5-0.5
		c0.5-1.8,0.9-3.5,1.4-5.3c0.1-0.4,0-0.6-0.4-0.7c-0.5-0.2-0.8-0.1-0.9,0.4c-0.5,1.7-0.9,3.4-1.4,5.1C35.1,23.3,35.2,23.5,36,23.6z
		 M36.1,17.1c0-0.6-0.5-0.5-0.7-0.6c-0.3-0.1-0.5,0-0.5,0.3c-0.5,1.8-1,3.6-1.4,5.4c-0.1,0.5,0.1,0.7,0.5,0.7
		c0.3,0.1,0.7,0.2,0.8-0.4c0.3-1.3,0.7-2.6,1-4C35.8,18.1,36,17.5,36.1,17.1z M39,20.3c-0.1-0.4-0.1-0.9-0.5-1.3
		c-0.2-0.2-0.3-0.2-0.3,0.1c-0.3,1-0.6,2-0.8,3.1c-0.1,0.3,0,0.3,0.3,0.2C38.4,22.1,39,21.2,39,20.3z" fill="#F47676"/>
	<path class="st3" d="M32.7,3.4c0,0.2-0.1,0.3-0.3,0.3c-0.2,0-0.4-0.1-0.4-0.3C32,3.2,32.1,3,32.4,3C32.6,3,32.6,3.2,32.7,3.4z" fill="#D0D2D5"/>
	<path class="st3" d="M35.3,1C35.1,1,35,0.9,35,0.7c0-0.2,0.1-0.3,0.3-0.3c0.2,0,0.3,0.1,0.3,0.3C35.7,0.9,35.5,1,35.3,1z" fill="#D0D2D5"/>
	<path class="st3" d="M29.7,6c0,0.3-0.1,0.4-0.4,0.4c-0.2,0-0.3-0.2-0.3-0.4c0-0.2,0.1-0.4,0.4-0.3C29.6,5.7,29.7,5.8,29.7,6z" fill="#D0D2D5"/>
	<path class="st4" d="M23.1,10.2c-0.1,0.2-0.1,0.3,0,0.5c0.8,1,1.3,2.1,1.5,3.4c0,0.1-0.1,0.4,0.3,0.3c0.1,1,0.2,2,0,3.1
		c-0.2-0.3-0.3-0.3-0.2-0.9c0.1-1.8-0.4-3.5-1.3-5.1c-0.2-0.3-0.4-0.6-0.6-0.8c-0.1-0.1-0.2-0.2-0.1-0.4C22.8,10,22.9,10.1,23.1,10.2
		z" fill="#F47676"/>
	<path class="st5" d="M34.2,16.5c0,0,0,0.1,0,0.2c-0.4,1.7-0.9,3.4-1.3,5.1c-0.2,0.6-0.3,0.7-0.9,0.6c-0.5-0.1-0.5-0.4-0.4-0.8
		c0.4-1.5,0.8-3,1.2-4.5c0-0.2,0.1-0.4,0.1-0.5c0.2-0.7,0.7-0.8,1.2-0.4C34.2,16.2,34.2,16.3,34.2,16.5z" fill="#FFA05F"/>
	<path class="st5" d="M36,23.6c-0.8-0.1-0.9-0.3-0.7-1.1c0.4-1.7,0.9-3.4,1.4-5.1c0.1-0.5,0.3-0.5,0.9-0.4c0.4,0.1,0.5,0.3,0.4,0.7
		c-0.5,1.7-0.9,3.5-1.4,5.3C36.5,23.3,36.4,23.6,36,23.6z" fill="#FFA05F"/>
	<path class="st5" d="M36.1,17.1c-0.1,0.5-0.3,1-0.4,1.6c-0.4,1.3-0.7,2.6-1,4c-0.1,0.5-0.4,0.4-0.8,0.4c-0.4-0.1-0.6-0.3-0.5-0.7
		c0.5-1.8,1-3.6,1.4-5.4c0.1-0.3,0.3-0.4,0.5-0.3C35.6,16.5,36.1,16.5,36.1,17.1z" fill="#FFA05F"/>
	<path class="st5" d="M39,20.3c0,0.9-0.6,1.8-1.4,2.1c-0.3,0.1-0.4,0-0.3-0.2c0.3-1,0.6-2,0.8-3.1c0.1-0.3,0.2-0.3,0.3-0.1
		C38.8,19.4,38.9,19.8,39,20.3z" fill="#FFA05F"/>
            </g>
            <g id="svg-hate" sketch:type="MSLayerGroup" transform="translate(55.000000, 11.000000)" fill="#baa3cd">
                <path d="M4.5,9.5c0.2,0.2,0.5,0,0.9,0c0.4,0,0.8,0.4,0.8,0.7S6,10.8,6,11.1s0.7,0.3,2.8,0.3s2.8-0.1,2.8-0.3
			c0-0.2-0.2-0.4-0.2-0.8c0-0.3,0.3-0.7,0.8-0.7c0.4,0,0.7,0.2,0.9,0c1.4-0.9,0.9-1.9,1-2.4c0.1-0.4,0.4-1.5,0.3-2.2
			c-0.2-0.7-0.8-2.7-1.5-3.4c-0.7-0.7-1.3-0.8-2.1-1.1C10.3,0.1,10.2,0,8.9,0S7.5,0.1,6.7,0.4S5.4,0.9,4.7,1.6
			C3.9,2.3,3.3,4.3,3.2,4.9C3,5.6,3.3,6.7,3.5,7.2C3.6,7.6,3.1,8.6,4.5,9.5z M10,4.6c0.1-0.2,0.5-0.3,0.7-0.3C11.9,4.3,13,5,13,6
			c0,1-0.4,1.8-1.3,1.8c-1,0-2-1.1-2-1.5C9.7,5.9,9.8,4.8,10,4.6z M8.9,6.5c0.3,0,0.4,0,0.6,0.8c0.2,0.7,0.6,1.5,0.6,1.7
			c0,0.2-0.5,0.5-0.7,0.5C9.2,9.5,9.1,9.3,9,9.1C8.9,9.1,9,8.2,8.9,8.1c0,0,0,0,0,0c0,0,0,0,0,0c-0.1,0.2,0,1-0.1,1.1
			C8.6,9.3,8.5,9.5,8.4,9.5c-0.2,0-0.7-0.3-0.7-0.5s0.4-1,0.6-1.7C8.5,6.5,8.6,6.5,8.9,6.5z M7,4.3c0.3,0,0.6,0.2,0.7,0.3
			c0.1,0.2,0.3,1.2,0.3,1.7c0,0.5-1,1.5-2,1.5S4.6,7.1,4.6,6C4.6,5,5.7,4.3,7,4.3z"/>
		<path d="M17.9,17.8c-0.1-1-0.9-1.1-1.7-1.1c-0.8,0-1,0.5-2.4,0.3c-0.5-0.1-1.7-0.6-3.1-1.3c1-0.5,1.9-0.9,2.4-1
			c1.4-0.4,2-0.4,2.3-0.2c0.3,0.2,1.1,0.2,1.6,0.1c0.5-0.1,1.1-1,0.7-1.6c-0.4-0.6-0.6-0.8-1-0.9c-0.4-0.1-1-0.5-0.7-1
			c0.3-0.5,0.4-1.1,0.3-1.4c-0.1-0.3-0.3-0.3-0.6-0.5C15.4,8.9,15,8.8,14.4,9s-0.7,0.5-0.7,1.4c0,0.8-0.2,1.2-0.8,1.8
			c-0.3,0.3-2.1,1.4-4.1,2.5c-2-1.1-3.9-2.2-4.1-2.5c-0.6-0.6-0.8-0.9-0.8-1.8c0-0.8-0.2-1.1-0.7-1.4C2.7,8.8,2.3,8.9,1.9,9.1
			C1.6,9.3,1.5,9.4,1.4,9.6c-0.1,0.3,0,0.9,0.3,1.4c0.2,0.5-0.3,0.9-0.7,1s-0.7,0.3-1,0.9c-0.4,0.6,0.2,1.4,0.7,1.6
			c0.5,0.1,1.3,0.1,1.6-0.1c0.3-0.2,0.9-0.1,2.3,0.2c0.5,0.1,1.4,0.5,2.4,1c-1.4,0.7-2.6,1.3-3.1,1.3c-1.4,0.2-1.6-0.3-2.4-0.3
			s-1.6,0.1-1.7,1.1c-0.1,1,0.1,1.1,0.7,1.5c0.6,0.4,1,0.4,1.1,0.5c0.1,0.1-0.3,1,0.1,1.8c0.4,0.8,0.7,1.2,1.7,0.5
			c1-0.7,0.7-1.6,0.8-2.1c0.1-0.5,0.6-0.9,1.4-1.4c0.4-0.2,1.8-1,3.4-1.9c1.6,0.8,3,1.6,3.4,1.8c0.8,0.4,1.4,0.9,1.4,1.4
			c0,0.5-0.2,1.4,0.8,2.1s1.3,0.3,1.7-0.5c0.4-0.8-0.1-1.6,0.1-1.8c0.1-0.1,0.5-0.1,1.1-0.5C17.8,18.8,18,18.8,17.9,17.8z"/>
            </g>
        </g>
</svg>
