<?xml version="1.0" encoding="UTF-8" standalone="no"?>
<svg id="skill-icons" width="297px" height="518px" viewBox="0 0 297 518" version="1.1" xmlns="http://www.w3.org/2000/svg" xmlns:xlink="http://www.w3.org/1999/xlink" xmlns:sketch="http://www.bohemiancoding.com/sketch/ns">
    <title>like-hate</title>
    <desc>Created by Cihad Turhan. Use without permission is prohibited.</desc>
    <defs></defs>
        <g id="svg-skill" sketch:type="MSArtboardGroup">
            <g id="svg-corgis" sketch:type="MSLayerGroup" transform="translate(220.000000, 237.000000)">
          		<path class="st0" d="M16.6,32.3c-3.9,0-7.8,0-11.8,0c-3,0-4.3-1.3-4.3-4.3c0-8.1,0-16.1,0-24.2c0-2.8,1.4-4.1,4.2-4.1
	c8.1,0,16.1,0,24.2,0c2.8,0,4.2,1.4,4.2,4.1c0,8.1,0,16.1,0,24.2c0,2.9-1.4,4.2-4.3,4.3C24.7,32.4,20.6,32.3,16.6,32.3z" fill="#F15B2E"/>
<path class="st1" d="M16.9,2.5c3.9,0,7.8,0.1,11.7,0c1.4,0,1.7,0.4,1.7,1.8c-0.1,7.9-0.1,15.9,0,23.8c0,1.2-0.3,1.7-1.6,1.7
	c-8-0.1-15.9-0.1-23.9,0c-1.3,0-1.6-0.4-1.6-1.7c0.1-7.9,0.1-15.9,0-23.8c0-1.3,0.3-1.8,1.7-1.8C8.9,2.5,12.9,2.5,16.9,2.5z" fill="#0B1419"/>
<g>
	<path class="st0" d="M11.4,18.9l-1.6,4.9H7.8L13,8.4h2.4l5.3,15.4h-2.1l-1.6-4.9H11.4z M16.5,17.4L15,12.9c-0.3-1-0.6-1.9-0.8-2.8
		h0c-0.2,0.9-0.5,1.9-0.8,2.8l-1.5,4.5H16.5z" fill="#F15B2E"/>
	<path class="st0" d="M25.1,9.6c0,0.7-0.5,1.2-1.3,1.2c-0.7,0-1.2-0.5-1.2-1.2c0-0.7,0.5-1.3,1.3-1.3C24.6,8.3,25.1,8.9,25.1,9.6z
		 M22.8,23.8V12.7h2v11.1H22.8z" fill="#F15B2E"/>
</g>
            </g>
            <g id="svg-design" sketch:type="MSLayerGroup" transform="translate(224.731727, 123.857267)">
                <path class="st0" d="M16.6,32.3c-3.9,0-7.8,0-11.8,0c-3,0-4.3-1.3-4.3-4.3c0-8.1,0-16.1,0-24.2c0-2.8,1.4-4.1,4.2-4.1
	c8.1,0,16.1,0,24.2,0c2.8,0,4.2,1.4,4.2,4.1c0,8.1,0,16.1,0,24.2c0,2.9-1.4,4.2-4.3,4.3C24.7,32.4,20.6,32.3,16.6,32.3z" fill="#FFCC2C"/>
<path class="st1" d="M16.9,2.5c3.9,0,7.8,0.1,11.7,0c1.4,0,1.7,0.4,1.7,1.8c-0.1,7.9-0.1,15.9,0,23.8c0,1.2-0.3,1.7-1.6,1.7
	c-8-0.1-15.9-0.1-23.9,0c-1.3,0-1.6-0.4-1.6-1.7c0.1-7.9,0.1-15.9,0-23.8c0-1.3,0.3-1.8,1.7-1.8C8.9,2.5,12.9,2.5,16.9,2.5z" fill="#0B1419"/>
<g>
	<path class="st0" d="M12.9,9.9h1.7v9.2c0,1.2-0.4,2.1-1.1,2.8c-0.7,0.7-1.7,1-3,1c-1.4,0-2.4-0.3-3-1c-0.9-0.9-1.3-2.2-1.3-4.1H8
		c0,1.5,0.3,2.4,0.8,2.9c0.4,0.4,1,0.6,1.7,0.6c0.8,0,1.4-0.2,1.7-0.5c0.5-0.5,0.7-1,0.7-1.7V9.9z" fill="#FFCC2C"/>
	<path class="st0" d="M18.4,10.8c0.7-0.7,1.8-1.1,3.2-1.1c1.6,0,2.7,0.4,3.5,1.2c0.7,0.7,1.1,1.5,1.1,2.5h-1.7
		c0-0.6-0.2-1.1-0.6-1.5c-0.5-0.5-1.2-0.7-2.1-0.7c-1.1,0-1.8,0.2-2.2,0.6c-0.4,0.4-0.5,0.8-0.5,1.2s0.1,0.8,0.3,1
		c0.3,0.3,0.7,0.5,1.4,0.8c1.2,0.5,2.5,1.1,3.9,1.7c0.4,0.2,0.8,0.4,1.1,0.8c0.6,0.6,0.8,1.2,0.8,2c0,1-0.4,1.9-1.1,2.6
		c-0.8,0.8-2,1.1-3.7,1.1c-1.7,0-2.9-0.5-3.8-1.4c-0.7-0.7-1-1.6-1-2.9h1.7c0,0.9,0.2,1.6,0.6,2c0.6,0.6,1.4,0.8,2.6,0.8
		c1.1,0,1.8-0.3,2.3-0.8c0.4-0.4,0.6-0.8,0.6-1.2c0-0.5-0.1-0.8-0.5-1.1c-0.3-0.3-0.7-0.5-1.2-0.8c-0.5-0.3-1.2-0.6-2-0.9
		c-0.9-0.4-1.6-0.7-2.2-1c-0.4-0.1-0.8-0.4-1.1-0.7c-0.5-0.5-0.7-1.1-0.7-1.8C17.4,12.3,17.7,11.5,18.4,10.8z" fill="#FFCC2C"/>
</g>
            </g>
            <g id="svg-family" sketch:type="MSLayerGroup" transform="translate(221.731727, 60.000000)">
				<path class="st0" d="M16.6,32.3c-3.9,0-7.8,0-11.8,0c-3,0-4.3-1.3-4.3-4.3c0-8.1,0-16.1,0-24.2c0-2.8,1.4-4.1,4.2-4.1
		c8.1,0,16.1,0,24.2,0c2.8,0,4.2,1.4,4.2,4.1c0,8.1,0,16.1,0,24.2c0,2.9-1.4,4.2-4.3,4.3C24.7,32.4,20.6,32.3,16.6,32.3z" fill="#4DB6AC"/>
	<path class="st1" d="M16.9,2.5c3.9,0,7.8,0.1,11.7,0c1.4,0,1.7,0.4,1.7,1.8c-0.1,7.9-0.1,15.9,0,23.8c0,1.2-0.3,1.7-1.6,1.7
		c-8-0.1-15.9-0.1-23.9,0c-1.3,0-1.6-0.4-1.6-1.7c0.1-7.9,0.1-15.9,0-23.8c0-1.3,0.3-1.8,1.7-1.8C8.9,2.5,12.9,2.5,16.9,2.5z" fill="#0B1419"/>
	<g>
		<path class="st0" d="M7,8.4h0.7v2.3h2.7V8.4h0.7v5.5h-0.7v-2.6H7.8v2.6H7V8.4z" fill="#4DB6AC"/>
		<path class="st0" d="M12,8.4h4.4V9h-1.8v4.9h-0.7V9H12V8.4z" fill="#4DB6AC"/>
		<path class="st0" d="M17.2,8.4h1l1.5,4.3l1.5-4.3h1v5.5h-0.7V9.7L20,13.9h-0.5L18,9.7v4.2h-0.7V8.4z" fill="#4DB6AC"/>
		<path class="st0" d="M23.4,8.4h0.7v4.9h3v0.6h-3.7V8.4z" fill="#4DB6AC"/>
		<path class="st0" d="M10.4,18.9c0.4-0.4,0.9-0.6,1.6-0.6s1.2,0.2,1.5,0.6c0.4,0.4,0.6,0.9,0.6,1.5h-0.8c0-0.5-0.2-0.8-0.4-1
			c-0.3-0.3-0.6-0.4-0.9-0.4c-0.4,0-0.7,0.2-1,0.5c-0.4,0.4-0.6,1-0.6,1.8c0,0.8,0.2,1.4,0.6,1.8c0.3,0.3,0.6,0.4,1,0.4
			c0.4,0,0.8-0.1,1-0.4c0.3-0.3,0.5-0.7,0.5-1.3h0.8c0,0.7-0.2,1.3-0.6,1.7c-0.4,0.4-0.9,0.6-1.6,0.6c-0.6,0-1.2-0.2-1.6-0.6
			c-0.5-0.5-0.8-1.3-0.8-2.2C9.6,20.2,9.8,19.4,10.4,18.9z" fill="#4DB6AC"/>
		<path class="st0" d="M15.7,18.7c0.3-0.3,0.8-0.5,1.4-0.5c0.7,0,1.2,0.2,1.5,0.5c0.3,0.3,0.5,0.7,0.5,1.1h-0.7
			c0-0.3-0.1-0.5-0.3-0.6c-0.2-0.2-0.5-0.3-0.9-0.3c-0.5,0-0.8,0.1-0.9,0.3C16,19.3,16,19.5,16,19.7c0,0.2,0,0.3,0.1,0.4
			c0.1,0.1,0.3,0.2,0.6,0.3c0.5,0.2,1.1,0.5,1.7,0.7c0.2,0.1,0.3,0.2,0.5,0.3c0.2,0.2,0.4,0.5,0.4,0.8c0,0.4-0.2,0.8-0.5,1.1
			c-0.3,0.3-0.9,0.5-1.6,0.5c-0.7,0-1.3-0.2-1.7-0.6c-0.3-0.3-0.4-0.7-0.4-1.2h0.7c0,0.4,0.1,0.7,0.3,0.8c0.2,0.2,0.6,0.4,1.1,0.4
			c0.5,0,0.8-0.1,1-0.3c0.2-0.2,0.3-0.3,0.3-0.5c0-0.2-0.1-0.4-0.2-0.5c-0.1-0.1-0.3-0.2-0.5-0.3c-0.2-0.1-0.5-0.2-0.8-0.4
			c-0.4-0.2-0.7-0.3-0.9-0.4c-0.2-0.1-0.3-0.2-0.5-0.3c-0.2-0.2-0.3-0.5-0.3-0.8C15.2,19.4,15.4,19,15.7,18.7z" fill="#4DB6AC"/>
		<path class="st0" d="M20.7,18.7c0.3-0.3,0.8-0.5,1.4-0.5c0.7,0,1.2,0.2,1.5,0.5c0.3,0.3,0.5,0.7,0.5,1.1h-0.7
			c0-0.3-0.1-0.5-0.3-0.6c-0.2-0.2-0.5-0.3-0.9-0.3c-0.5,0-0.8,0.1-0.9,0.3C21,19.3,21,19.5,21,19.7c0,0.2,0,0.3,0.1,0.4
			c0.1,0.1,0.3,0.2,0.6,0.3c0.5,0.2,1.1,0.5,1.7,0.7c0.2,0.1,0.3,0.2,0.5,0.3c0.2,0.2,0.4,0.5,0.4,0.8c0,0.4-0.2,0.8-0.5,1.1
			c-0.3,0.3-0.9,0.5-1.6,0.5c-0.7,0-1.3-0.2-1.7-0.6c-0.3-0.3-0.4-0.7-0.4-1.2h0.7c0,0.4,0.1,0.7,0.3,0.8c0.2,0.2,0.6,0.4,1.1,0.4
			c0.5,0,0.8-0.1,1-0.3c0.2-0.2,0.3-0.3,0.3-0.5c0-0.2-0.1-0.4-0.2-0.5c-0.1-0.1-0.3-0.2-0.5-0.3c-0.2-0.1-0.5-0.2-0.8-0.4
			c-0.4-0.2-0.7-0.3-0.9-0.4c-0.2-0.1-0.3-0.2-0.5-0.3c-0.2-0.2-0.3-0.5-0.3-0.8C20.2,19.4,20.4,19,20.7,18.7z" fill="#4DB6AC"/>
	</g>
            </g>
            <g id="svg-skillsihave" sketch:type="MSLayerGroup" transform="translate(240.000000, 11.000000)" fill="#f09ea8">
                <path d="M17.3,5.6c-7.9-8-19.6,4.4,0,15C36.9,10,25.1-2.5,17.3,5.6z"/>
            </g>
            <g id="svg-game" sketch:type="MSLayerGroup" transform="translate(228.000000, 293.000000)" fill="#666666">
               <path class="st0" d="M16.6,32.3c-3.9,0-7.8,0-11.8,0c-3,0-4.3-1.3-4.3-4.3c0-8.1,0-16.1,0-24.2c0-2.8,1.4-4.1,4.2-4.1
	c8.1,0,16.1,0,24.2,0c2.8,0,4.2,1.4,4.2,4.1c0,8.1,0,16.1,0,24.2c0,2.9-1.4,4.2-4.3,4.3C24.7,32.4,20.6,32.3,16.6,32.3z" fill="#38A4DC"/>
<path class="st1" d="M16.9,2.5c3.9,0,7.8,0.1,11.7,0c1.4,0,1.7,0.4,1.7,1.8c-0.1,7.9-0.1,15.9,0,23.8c0,1.2-0.3,1.7-1.6,1.7
	c-8-0.1-15.9-0.1-23.9,0c-1.3,0-1.6-0.4-1.6-1.7c0.1-7.9,0.1-15.9,0-23.8c0-1.3,0.3-1.8,1.7-1.8C8.9,2.5,12.9,2.5,16.9,2.5z" fill="#0B1419"/>
<g>
	<path class="st0" d="M26.5,15.4l-1.8,0.5c-0.3-1.2-0.9-1.8-1.9-1.8c-0.6,0-1.1,0.1-1.4,0.4c-0.3,0.2-0.4,0.6-0.4,1
		c0,0.5,0.2,0.9,0.5,1.2c0.3,0.2,0.8,0.5,1.5,0.7l0.6,0.2c1.3,0.3,2.1,0.8,2.6,1.4c0.4,0.5,0.6,1.1,0.6,1.8c0,1-0.4,1.9-1.1,2.4
		c-0.7,0.5-1.6,0.8-2.8,0.8c-1.1,0-2.1-0.3-2.8-0.8c-0.6-0.5-1.1-1.1-1.3-2l1.8-0.6c0.1,0.7,0.4,1.2,0.9,1.5
		c0.4,0.3,0.8,0.4,1.4,0.4c1.4,0,2.1-0.5,2.1-1.5c0-0.5-0.2-0.9-0.5-1.2c-0.3-0.2-0.8-0.5-1.6-0.7l-0.6-0.2c-1.2-0.4-2-0.8-2.5-1.4
		c-0.4-0.5-0.6-1.1-0.6-1.9c0-0.9,0.4-1.6,1.1-2.2c0.6-0.5,1.5-0.8,2.5-0.8C24.7,12.7,26,13.6,26.5,15.4z" fill="#38A4DC"/>
</g>
<g>
	<path class="st0" d="M7.8,8h5.5c3.7,0,5.5,1.5,5.5,4.5c0,1.5-0.6,2.7-1.7,3.5c-1,0.7-2.3,1.1-4.1,1.1h-2.6v6.5H7.8V8z M10.5,10v5
		H13c2,0,3.1-0.8,3.1-2.5c0-1.6-1-2.4-3-2.4H10.5z" fill="#38A4DC"/>
</g>
                
            </g>
            <g id="svg-yoga" sketch:type="MSLayerGroup" transform="translate(230.000000, 354.000000)">
 				<path class="st0" d="M16.6,32.3c-3.9,0-7.8,0-11.8,0c-3,0-4.3-1.3-4.3-4.3c0-8.1,0-16.1,0-24.2c0-2.8,1.4-4.1,4.2-4.1
			c8.1,0,16.1,0,24.2,0c2.8,0,4.2,1.4,4.2,4.1c0,8.1,0,16.1,0,24.2c0,2.9-1.4,4.2-4.3,4.3C24.7,32.4,20.6,32.3,16.6,32.3z" fill="#00599C"/>
		<path d="M16.9,2.5c3.9,0,7.8,0.1,11.7,0c1.4,0,1.7,0.4,1.7,1.8c-0.1,7.9-0.1,15.9,0,23.8c0,1.2-0.3,1.7-1.6,1.7
			c-8-0.1-15.9-0.1-23.9,0c-1.3,0-1.6-0.4-1.6-1.7c0.1-7.9,0.1-15.9,0-23.8c0-1.3,0.3-1.8,1.7-1.8C8.9,2.5,12.9,2.5,16.9,2.5z"/>
		<g>
			<circle class="st0" cx="16.7" cy="16.1" r="13.1" fill="#00599C"/>
			<circle class="st1" cx="16.7" cy="16.1" r="12.1" fill="#FFFFFF"/>
			<path class="st0" d="M7.8,9.9c3.4-5.4,11.3-6.5,16.1-2.2c-1.8,1.3-2.1,2.2-1,3.8c1.6,2.5,1.7,4.9,0.6,7.6c-0.4,1-0.7,2.1-1,3.4
				c-0.9-1.6-1.2-3.3-1.8-4.8c-0.7-1.8-1.2-3.6-1.8-5.4c-0.3-0.7-0.5-1.3,0.6-1.4c0.3,0,0.5-0.2,0.5-0.6c-0.1-0.4-0.4-0.3-0.7-0.3
				c-1.8,0-3.5,0-5.3,0c-0.3,0-0.6,0-0.6,0.4c0,0.2,0.2,0.4,0.4,0.5c2.5,0.9,2.6,3.4,2.6,5.1c0,2.2-1.3,4.3-2.2,6.9
				c-1.3-3.9-2.5-7.4-3.7-10.9c-0.2-0.6-0.2-1,0.5-1c0.3,0,0.8-0.1,0.7-0.5c-0.1-0.6-0.6-0.4-1-0.4C9.8,9.9,8.9,9.9,7.8,9.9z" fill="#00599C"/>
			<path class="st0" d="M17,17.1c1.2,3.2,2.2,5.9,3.2,8.7c0.2,0.6,0,0.8-0.5,0.9c-1.7,0.5-3.5,0.4-5.2,0.2c-0.7-0.1-0.7-0.5-0.5-1.1
				C15,23.1,15.9,20.3,17,17.1z" fill="#00599C"/>
			<path class="st0" d="M11.9,25.9c-5.4-2.9-7.7-9.4-5.1-14C8.5,16.6,10.1,21.1,11.9,25.9z" fill="#00599C"/>
			<path class="st0" d="M22.6,25.4c1.3-4.7,3.5-9,4.2-13.6C29,15,27.9,22.4,22.6,25.4z" fill="#00599C"/>
		</g>
            </g>
            
            
            <g id="svg-roller" sketch:type="MSLayerGroup" transform="translate(224.731727, 179.000000)">
				<path class="st0" d="M16.6,32.3c-3.9,0-7.8,0-11.8,0c-3,0-4.3-1.3-4.3-4.3c0-8.1,0-16.1,0-24.2c0-2.8,1.4-4.1,4.2-4.1
	c8.1,0,16.1,0,24.2,0c2.8,0,4.2,1.4,4.2,4.1c0,8.1,0,16.1,0,24.2c0,2.9-1.4,4.2-4.3,4.3C24.7,32.4,20.6,32.3,16.6,32.3z" fill="#E72666"/>
<path class="st1" d="M16.9,2.5c3.9,0,7.8,0.1,11.7,0c1.4,0,1.7,0.4,1.7,1.8c-0.1,7.9-0.1,15.9,0,23.8c0,1.2-0.3,1.7-1.6,1.7
	c-8-0.1-15.9-0.1-23.9,0c-1.3,0-1.6-0.4-1.6-1.7c0.1-7.9,0.1-15.9,0-23.8c0-1.3,0.3-1.8,1.7-1.8C8.9,2.5,12.9,2.5,16.9,2.5z" fill="#0B1419"/>
<g>
	<path class="st0" d="M8,8h1.4v7.5c0,0.6,0.2,1.1,0.6,1.4c0.5,0.5,1.1,0.7,2,0.7c0.9,0,1.5-0.2,2-0.7c0.4-0.4,0.6-0.8,0.6-1.4V8h1.4
		v7.5c0,0.9-0.3,1.7-0.9,2.2c-0.7,0.7-1.7,1-3.1,1c-1.4,0-2.4-0.3-3.1-1C8.3,17.2,8,16.5,8,15.5V8z" fill="#E72666"/>
	<path class="st0" d="M21.1,13.1L17.7,8h1.6l2.5,3.9L24.3,8h1.6l-3.4,5.1l3.7,5.5h-1.6l-2.8-4.3L19,18.6h-1.6L21.1,13.1z" fill="#E72666"/>
	<path class="st0" d="M9.2,19.4h0.6v5.3H9.2v-0.4c-0.2,0.3-0.5,0.5-0.9,0.5c-0.4,0-0.8-0.1-1-0.4C6.9,24,6.7,23.5,6.7,23
		c0-0.6,0.2-1.1,0.5-1.4c0.3-0.3,0.6-0.4,1-0.4c0.5,0,0.8,0.2,1.1,0.5V19.4z M7.7,21.9c-0.2,0.2-0.3,0.5-0.3,1c0,0.5,0.1,0.8,0.3,1
		c0.1,0.1,0.3,0.2,0.5,0.2c0.2,0,0.5-0.1,0.6-0.2c0.2-0.2,0.3-0.6,0.3-1s-0.1-0.8-0.4-1c-0.2-0.2-0.4-0.2-0.6-0.2
		C8,21.7,7.8,21.8,7.7,21.9z" fill="#E72666"/>
	<path class="st0" d="M11.1,21.6c0.3-0.3,0.7-0.4,1.1-0.4c0.4,0,0.8,0.2,1.1,0.5c0.3,0.3,0.4,0.7,0.4,1.3h-2.5c0,0.4,0.1,0.8,0.3,1
		c0.2,0.2,0.4,0.3,0.7,0.3c0.3,0,0.5-0.1,0.6-0.2c0.1-0.1,0.2-0.3,0.2-0.5h0.7c-0.1,0.4-0.2,0.7-0.4,0.8c-0.3,0.3-0.6,0.4-1.1,0.4
		c-0.5,0-0.9-0.2-1.2-0.5c-0.3-0.3-0.5-0.8-0.5-1.3S10.8,22,11.1,21.6z M11.6,21.9c-0.1,0.1-0.2,0.3-0.3,0.5h1.8
		c0-0.2-0.1-0.4-0.2-0.6c-0.1-0.1-0.4-0.2-0.6-0.2C12,21.7,11.8,21.8,11.6,21.9z" fill="#E72666"/>
	<path class="st0" d="M14.9,21.5c0.2-0.2,0.6-0.4,1.1-0.4c0.5,0,0.9,0.1,1.1,0.3c0.2,0.2,0.3,0.4,0.3,0.7h-0.6
		c0-0.1-0.1-0.2-0.1-0.3c-0.1-0.1-0.4-0.2-0.7-0.2c-0.2,0-0.4,0.1-0.5,0.2c-0.1,0.1-0.2,0.2-0.2,0.3c0,0.1,0,0.2,0.1,0.2
		c0.1,0.1,0.3,0.2,0.8,0.3c0.3,0.1,0.5,0.1,0.7,0.2c0.2,0.1,0.3,0.1,0.4,0.2c0.2,0.2,0.2,0.4,0.2,0.6c0,0.2-0.1,0.5-0.3,0.7
		c-0.2,0.2-0.6,0.4-1.1,0.4c-0.5,0-0.9-0.1-1.1-0.4c-0.2-0.2-0.3-0.5-0.3-0.8h0.6c0,0.2,0.1,0.3,0.2,0.4c0.1,0.1,0.4,0.2,0.7,0.2
		c0.4,0,0.6-0.1,0.7-0.2c0.1-0.1,0.1-0.2,0.1-0.3c0-0.1-0.1-0.2-0.2-0.3c-0.1-0.1-0.2-0.1-0.4-0.2c-0.4-0.1-0.7-0.2-0.8-0.2
		c-0.2-0.1-0.4-0.1-0.5-0.2c-0.2-0.2-0.3-0.4-0.3-0.6C14.7,22,14.8,21.7,14.9,21.5z" fill="#E72666"/>
	<path class="st0" d="M18.4,19.4H19v0.8h-0.6V19.4z M18.4,21.2H19v3.5h-0.6V21.2z" fill="#E72666"/>
	<path class="st0" d="M20.4,21.5c0.2-0.2,0.5-0.3,0.9-0.3c0.3,0,0.6,0.1,0.9,0.3c0.2-0.2,0.5-0.3,0.7-0.3h0.3v0.6
		c-0.2-0.1-0.5-0.1-0.8,0c0.1,0.2,0.2,0.4,0.2,0.7c0,0.4-0.1,0.7-0.3,0.9c-0.2,0.2-0.5,0.3-0.9,0.3c-0.2,0-0.4-0.1-0.7-0.2
		c-0.1,0.1-0.2,0.2-0.2,0.2c0,0.1,0,0.1,0.1,0.2c0.1,0.1,0.3,0.2,0.7,0.2c0.3,0,0.7,0,1.1,0.1c0.2,0,0.4,0.1,0.5,0.2
		c0.2,0.2,0.2,0.4,0.2,0.6c0,0.2-0.1,0.5-0.2,0.6c-0.2,0.2-0.7,0.3-1.5,0.3c-0.6,0-1.1-0.1-1.3-0.3c-0.1-0.1-0.2-0.3-0.2-0.5
		c0-0.1,0.1-0.3,0.2-0.4c0.1-0.1,0.2-0.2,0.4-0.2c-0.1,0-0.1-0.1-0.2-0.2c-0.1-0.1-0.2-0.2-0.2-0.4c0-0.2,0.2-0.4,0.5-0.6
		c-0.2-0.2-0.3-0.5-0.3-0.8C20.1,22,20.2,21.7,20.4,21.5z M20.8,24.5c-0.1,0-0.2,0.1-0.3,0.2c-0.1,0.1-0.1,0.2-0.1,0.3
		c0,0.1,0,0.2,0.1,0.3c0.1,0.1,0.4,0.2,0.8,0.2c0.6,0,0.9-0.1,1.1-0.2c0.1-0.1,0.1-0.2,0.1-0.2c0-0.1,0-0.2-0.1-0.2
		c-0.1-0.1-0.2-0.1-0.4-0.1C21.4,24.6,21.1,24.6,20.8,24.5z M20.9,21.8c-0.1,0.1-0.2,0.3-0.2,0.5c0,0.2,0.1,0.4,0.2,0.5
		c0.1,0.1,0.3,0.2,0.4,0.2c0.2,0,0.3-0.1,0.4-0.2c0.1-0.1,0.2-0.3,0.2-0.5c0-0.2-0.1-0.4-0.2-0.5c-0.1-0.1-0.2-0.2-0.4-0.2
		C21.1,21.7,21,21.7,20.9,21.8z" fill="#E72666"/>
	<path class="st0" d="M24.3,24.7h-0.6v-3.5h0.6v0.6c0.4-0.5,0.8-0.7,1.2-0.7c0.4,0,0.7,0.1,1,0.4c0.2,0.2,0.2,0.4,0.2,0.6v2.6h-0.6
		v-2.4c0-0.2-0.1-0.3-0.2-0.5c-0.1-0.1-0.3-0.2-0.5-0.2c-0.2,0-0.4,0.1-0.6,0.3c-0.3,0.3-0.5,0.6-0.5,1V24.7z" fill="#E72666"/>
</g>
            </g>
        </g>
</svg>
